<?xml version="1.0" encoding="UTF-8"?>
<svg id="Layer_2" data-name="Layer 2" xmlns="http://www.w3.org/2000/svg" viewBox="0 0 1000 1000">
  <defs>
    <style>
      .cls-1 {
        fill: #9bd9e1;
      }

      .cls-1, .cls-2, .cls-3, .cls-4, .cls-5, .cls-6, .cls-7, .cls-8, .cls-9, .cls-10, .cls-11, .cls-12, .cls-13 {
        stroke-width: 0px;
      }

      .cls-2 {
        fill: #6251a1;
      }

      .cls-2, .cls-3, .cls-4, .cls-5, .cls-6, .cls-7, .cls-8, .cls-9, .cls-10, .cls-11, .cls-12, .cls-13 {
        fill-rule: evenodd;
      }

      .cls-3 {
        fill: #9588c0;
      }

      .cls-4 {
        fill: #5a53a2;
      }

      .cls-5 {
        fill: #fab688;
      }

      .cls-6 {
        fill: #ed7d57;
      }

      .cls-7 {
        fill: #38308d;
      }

      .cls-8 {
        fill: #2b2870;
      }

      .cls-9 {
        fill: #ede4f1;
      }

      .cls-10 {
        fill: #fff;
      }

      .cls-11 {
        fill: #d7cce5;
      }

      .cls-12 {
        fill: #1b2452;
      }

      .cls-13 {
        fill: #d1c6e2;
      }
    </style>
  </defs>
  <g id="Layer_1-2" data-name="Layer 1">
    <g>
      <rect class="cls-1" width="1000" height="1000"/>
      <g>
        <path class="cls-9" d="M493.12,248.39c-93.56,0-82.88,111.01-150.43,144.84-89.4,44.79-243.21,22.61-243.21,99.47,0,134.93,176.24,265.26,393.64,265.26s361.43-155.92,361.43-290.85-144.03-218.72-361.43-218.72Z"/>
        <path class="cls-4" d="M613.95,343.12H97.11c-12.32,0-20.48,10.08-18.12,22.4l67.04,350.74c2.36,12.32,14.36,22.4,26.68,22.4h516.84c12.32,0,20.48-10.08,18.12-22.4l-67.04-350.74c-2.35-12.32-14.36-22.4-26.68-22.4Z"/>
        <path class="cls-11" d="M617.94,363.98H101.1c-.84,0-1.41.69-1.24,1.53l67.04,350.74c.16.84.98,1.53,1.83,1.53h516.84c.85,0,1.4-.69,1.24-1.53l-67.04-350.74c-.16-.85-.98-1.53-1.83-1.53Z"/>
        <path class="cls-8" d="M793.85,738.66H272.84v16.73c0,9.2,7.53,16.73,16.73,16.73h487.55c9.2,0,16.73-7.53,16.73-16.73v-16.73Z"/>
        <path class="cls-12" d="M272.84,738.66v16.73c0,9.2,7.53,16.73,16.73,16.73h-121.89c-9.21,0-16.73-7.53-16.73-16.73v-16.73h121.89Z"/>
        <path class="cls-10" d="M151.32,394.91h41.83l7.92,41.83h-41.83l-7.92-41.83h0ZM198.67,645.04h41.83l7.92,41.83h-41.83l-7.92-41.83h0ZM273.33,645.04h348.85c2.99,0,5.9,2.45,6.47,5.44h0c.57,2.99-1.42,5.44-4.41,5.44h-348.85c-2.99,0-5.9-2.45-6.47-5.44h0c-.57-2.99,1.42-5.44,4.41-5.44h0ZM279.18,675.99h348.85c2.99,0,5.9,2.44,6.47,5.44h0c.57,2.99-1.41,5.44-4.41,5.44h-348.85c-2.99,0-5.9-2.45-6.47-5.44h0c-.57-2.99,1.42-5.44,4.41-5.44h0ZM186.83,582.51h41.83l7.92,41.83h-41.83l-7.92-41.83h0ZM261.49,582.51h348.85c2.99,0,5.9,2.44,6.47,5.44h0c.56,2.99-1.42,5.44-4.41,5.44h-348.85c-2.99,0-5.9-2.45-6.47-5.44h0c-.57-2.99,1.41-5.44,4.41-5.44h0ZM267.35,613.46h348.85c2.99,0,5.9,2.44,6.47,5.44h0c.57,2.99-1.42,5.44-4.41,5.44h-348.85c-2.99,0-5.9-2.44-6.47-5.44h0c-.57-2.99,1.42-5.44,4.41-5.44h0ZM175,519.97h41.83l7.91,41.83h-41.83l-7.92-41.83h0ZM249.65,519.97h348.85c2.99,0,5.9,2.44,6.47,5.44h0c.57,2.99-1.41,5.44-4.41,5.44H251.72c-2.99,0-5.9-2.45-6.47-5.44h0c-.57-2.99,1.42-5.44,4.41-5.44h0ZM255.51,550.92h348.85c2.99,0,5.9,2.44,6.47,5.44h0c.57,2.99-1.41,5.44-4.41,5.44h-348.85c-2.99,0-5.9-2.44-6.47-5.44h0c-.57-2.99,1.41-5.44,4.41-5.44h0ZM163.16,457.44h41.83l7.92,41.83h-41.83l-7.92-41.83h0ZM237.82,457.44h348.85c2.99,0,5.9,2.44,6.47,5.44h0c.57,2.99-1.42,5.44-4.41,5.44H239.88c-2.99,0-5.9-2.45-6.47-5.44h0c-.57-2.99,1.42-5.44,4.41-5.44h0ZM243.68,488.39h348.85c2.99,0,5.9,2.45,6.47,5.44h0c.57,2.99-1.42,5.44-4.41,5.44H245.74c-2.99,0-5.9-2.44-6.47-5.44h0c-.57-2.99,1.42-5.44,4.41-5.44h0ZM225.98,394.91h348.85c2.99,0,5.9,2.44,6.47,5.44h0c.57,2.99-1.41,5.44-4.41,5.44H228.04c-2.99,0-5.9-2.44-6.47-5.44h0c-.57-2.99,1.42-5.44,4.41-5.44h0ZM231.84,425.86h348.85c2.99,0,5.9,2.45,6.47,5.44h0c.57,2.99-1.42,5.44-4.41,5.44H233.9c-2.99,0-5.9-2.44-6.47-5.44h0c-.57-2.99,1.41-5.44,4.41-5.44Z"/>
        <path class="cls-3" d="M387.48,177.76h0c89.93-6.12,163.2,63,174.63,152.39l22.14,173.13-174.53,1.51c-90.12.78-168.51-62.46-174.63-152.39h0c-6.12-89.93,62.46-168.52,152.39-174.64Z"/>
        <path class="cls-10" d="M378.77,257.25c-.15-7.4,2.35-13.76,7.58-19.15,5.23-5.39,11.54-8.16,18.94-8.32,7.27-.15,13.58,2.3,18.76,7.4,5.18,5.1,7.83,11.42,7.99,18.95.15,7.47-2.28,13.89-7.32,19.33-5.04,5.45-11.22,8.22-18.62,8.37-7.47.16-13.83-2.35-19.15-7.58-5.32-5.23-8.03-11.54-8.19-19.01h0ZM361.3,455.38l-.24-11.58,22.77-.48-2.67-127.39-25.09.52-.05-11.58c13.95-.68,27.39-1.54,40.37-2.58,12.98-1.04,25.57-2.27,37.7-3.69l3.01,143.61,23.94-.51.24,11.58-99.98,2.1Z"/>
        <path class="cls-13" d="M749.16,780.17c95.13,0,172.25,9.5,172.25,21.23s-77.12,21.22-172.25,21.22-172.25-9.5-172.25-21.22,77.12-21.23,172.25-21.23Z"/>
        <path class="cls-12" d="M735.1,502.4c-9.18,6.4-16.87,53.93-17.62,142.59-.98,33.26,4.79,77.33,12.27,135.25,6.09,2.61,15.03,2.97,21.83,2.61,9.47-71.89,11.02-117.78,3.97-136.62,9.16-23.12,16.85-47.19,22.71-71.74,4.07,34.07,8.88,61.1,14.42,81.11,12.29,32.02,30.49,73.95,54.61,125.8,5.58.76,15.49-.93,21.26-4.69-8.43-63.43-24.55-111.1-39.73-126.89,14.44-81.07,2.42-123.29-15.5-148.07-31.97,4.76-59.72,4.43-78.22.64Z"/>
        <path class="cls-3" d="M835.27,477.58c23.92-92.71-2.13-126.48-53.35-126.89-3.39,9-9.43,18.2-18.14,27.61-3.59-6.86-7.5-12.1-11.71-15.68-4.5,2.95-9.01,7.58-13.52,13.88-.78-9.6.12-17.89,2.71-24.87-18.43,1.28-47.15,10.4-86.18,27.37-21.44-7.06-48.35-15-78.58-21.41l-.1.08.21.55c-2.38,2.41-5.2,8.53-6.06,13.4-.48-.12-.79-.21-1.15-.3l-.51,1.45c25.24,15.92,49.79,25.26,84.76,34.8,22.2-.18,44.64.69,67.24-7.24.32,66.67,5.02,94.4,14.21,102.06,8.81,1.81,19.73,2.83,32.21,2.89.82,1.51,1.42,3.98,2.02,6.36,5.87-1.82,12.33-4.82,19.45-7.14l1.95-.79c19.61-7.95,33.15-16.07,44.55-26.14Z"/>
        <path class="cls-12" d="M709.28,802.97c18.27.85,31.92,1.49,38.35-.1,6.93-1.72,5.79-5.95,2.3-12.83-6.84,2.23-13.71,1.66-20.64-1.72-5.94,4.2-14.5,6.72-25.69,7.58-4.91,3.16-3.19,6.36,5.68,7.07h0ZM851.5,805.68c10.14-2.86,18.87-4.83,22.5-7.39,4.87-3.42,2.23-7.53-2.73-12.7-5.89,4.12-12.64,5.57-20.25,4.35-5.37,7.63-22.83,4.42-24.55,9.65-2.14,9.73,20.38,7.42,25.03,6.1Z"/>
        <path class="cls-2" d="M817.43,490.64c-8.32,5.02-17.84,9.53-28.66,13.87,7.82-.57,16.03-1.48,24.55-2.75,1.79-3.81,3.13-7.4,4.11-11.12h0ZM738.83,380.55c2.01-3.38,4.29-6.74,6.61-9.85-.46-.47-.85-.91-1.14-1.32-1.91,2.06-3.81,4.43-5.73,7.1.05,1.39.14,2.75.26,4.07h0ZM720.89,400.34c-.09-3.86.21-9.29.89-16.31-1.59,7.61-4.81,13.94-9.66,18.96,2.92-.76,5.84-1.63,8.76-2.66h0ZM763.79,378.3c-1.64-3.14-3.35-5.94-5.13-8.39-.34.28-1.08,1.11-2.16,1.96,1.66,4.06,3.47,8.87,5.21,13.96,8.65-10.88,16.86-24.72,20.22-35.13-3.39,9-9.43,18.2-18.14,27.6h0ZM767.31,505.28c-5.76-.02-11.19-.26-16.23-.68,1.76-1.78,3.56-3.29,5.39-4.53l-.82-1.43c12.18-10.12,30.84-24.58,50.91-38.45-2.89-14.41-2.43-31.91,1.37-52.51-1.02,18.11,1.82,39.13,5.43,54.19-11.54,7.26-26.61,17.57-52.37,35.47,2.43,2.05,4.53,4.7,6.32,7.94Z"/>
        <path class="cls-7" d="M760.23,470.51c-1.7-26.11-3.76-57.87-5.82-97.29,2.2-1.11,3.74-2.87,4.26-3.31-2.1-2.91-4.3-5.34-6.58-7.29-2.59,1.7-5.18,3.95-7.78,6.76.8,1.11,2.19,2.4,4.19,3.86-1.93,24.26-3.9,57.31-5.92,99.16,1.1,3.89,4.45,7.85,8.79,10.86,2.83-2.28,7.54-6.48,8.88-12.75Z"/>
        <path class="cls-11" d="M763.79,378.3c8.71-9.4,14.75-18.6,18.14-27.6-1.9-3.6-4.89-7.2-6.99-8.22-10.13,10.57-16.57,16.48-22.75,20.08-.03.02-.07.05-.11.06-.08-.28-.16-.56-.24-.85-1.63-5.58-4-12.05-5.02-18.49-2.91,2.06-3.96,5.2-5.54,8.35-2.59,6.98-3.49,15.27-2.71,24.87,1.91-2.68,3.83-5.05,5.74-7.12,2.6-2.81,5.19-5.06,7.78-6.76,2.28,1.95,4.48,4.37,6.58,7.29,1.77,2.45,3.48,5.25,5.13,8.39Z"/>
        <path class="cls-2" d="M797,407.34c.33-1.47.43-3.13.29-5.01-8.59.76-16.29.18-23.07-1.8-.72,1.37-1.05,2.85-.96,4.42,5.22,1.95,13.13,2.75,23.74,2.39Z"/>
        <path class="cls-5" d="M774.83,342.54c-1.57-1.95-2.89-4.56-3.97-7.81.57-1.74,1.16-3.93,1.76-6.58,11.09-7.88,12.5-13.57,4.25-17.06-1.63.95-3.61,3.85-5.95,8.66-1.95-.03-3.45-1-4.5-2.89,2.15-8.1,3.52-14.66,4.12-19.7-5.72-8.12-18.71-9.02-35.83-6.43-.7,4.58-1.25,9.44-1.65,14.56-2.98,2.86-2.36,13.22.69,25.11-1.25,6.82,3.02,10.44,12.82,10.85l.14,2.08c1.03,6.44,3.39,12.91,5.02,18.49l.35.79c6.18-3.6,12.62-9.5,22.75-20.08Z"/>
        <path class="cls-12" d="M734.7,290.75c17.12-2.6,30.11-1.7,35.83,6.43-.6,5.03-1.97,11.6-4.12,19.7,1.05,1.89,2.55,2.86,4.5,2.89,2.34-4.81,4.32-7.71,5.95-8.66,8.25,3.49,6.84,9.18-4.25,17.06-.6,2.65-1.19,4.85-1.76,6.58,10.07-2.49,18.34-11.72,19.45-15.66,11.31-23.52-2.07-33.07-9.2-36.5-3.6-22.98-36.62-1.89-53.63-12.64-6.47,9.35,2.02,20.71,7.22,20.81Z"/>
        <path class="cls-6" d="M759.51,339.66c-3.14.87-9.33,1.72-12.94,1.61l.14,2.08c.2,1.25.45,2.5.73,3.74.04-.01.07-.03.11-.04,5.6-1.96,9.59-4.42,11.96-7.39Z"/>
        <path class="cls-12" d="M745.44,370.7c-.42-.41-.8-.85-1.14-1.32,3.77-4.01,6.45-6.18,8.05-6.52,1.14,2.06,2.58,5.19,4.15,9.01,1.08-.85,1.83-1.68,2.16-1.96-2.02-2.8-4.12-5.15-6.31-7.05-2.08,1.69-4.38,4.31-6.91,7.85Z"/>
        <path class="cls-5" d="M851.49,781.55c.8,2.76,1.12,5.62.94,8.58,6.24.74,11.89-.36,16.95-3.32-1.44-2.7-2.51-5.62-3.23-8.75-4.37,2.1-10.04,3.3-14.66,3.49h0ZM748.43,790.48c-.3-2.58-.43-5.09-.38-7.52-4.79.05-10.14-.31-14.67-1.5-.52,3.1-1.43,5.6-2.74,7.48,5.96,2.6,11.89,3.11,17.79,1.54Z"/>
        <path class="cls-5" d="M576.6,358.22c-2.25-6.02-5-9.5-8.25-10.43-7.29-3.25-13.76-6.9-19.39-10.96-2.27,2.78-.46,5.66,5.41,8.64,2.45,1.36,4.23,2.7,5.33,4.02-6.11,2.88-9.08,6.52-8.91,10.91.87,3.39,1.97,5.33,3.29,5.83.62.24,2.01.73,3.35-.77,3.32,6.62,7.61,6.89,11,5.63.95.2,1.26.29,2.1.51.86-4.87,3.67-10.98,6.06-13.4Z"/>
        <path class="cls-5" d="M764.51,498.71c-5.52,2.26-10.58,4.82-15.19,7.72-4.12,6.93-5.2,12.32-3.27,16.17,3.3,3.54,6.78,1.98,9.55,1.27-.02-3.64,1.03-6.6,3.15-8.89,3.24.77,5.36-.05,6.35-2.45,1.32-.39,2.53-.72,3.61-1.01,1.09-4.95-.07-7.81-1.84-10.15-.75-.92-1.57-1.78-2.36-2.67Z"/>
        <path class="cls-10" d="M710.82,304.85c2.33,1.06,5.75,1.19,7.63.28,1.88-.9,1.51-2.49-.82-3.56-47.83-21.67-99.51-33.49-155.04-35.43-2.97-.1-5.1.94-4.77,2.32.34,1.39,3.02,2.59,5.98,2.69,52.5,1.84,101.51,13.06,147.01,33.68h0ZM673.08,301.01c-13.69-4.31-27-8.07-40.09-11.14-12.96-3.03-25.72-5.37-38.43-6.87-2.98-.35-5.24-1.72-5.03-3.07.2-1.34,2.79-2.15,5.77-1.8,13.65,1.61,27.26,4.1,41.02,7.32,13.64,3.19,27.45,7.1,41.62,11.56,2.67.85,3.75,2.42,2.41,3.53-1.34,1.1-4.59,1.31-7.26.47Z"/>
      </g>
    </g>
  </g>
</svg>