<svg xmlns="http://www.w3.org/2000/svg" xmlns:xlink="http://www.w3.org/1999/xlink" version="1.1" id="Calque_1" x="0px" y="0px" width="116px" height="116px" viewBox="0 0 116 116" enable-background="new 0 0 116 116" xml:space="preserve"><script xmlns="" src="chrome-extension://hoklmmgfnpapgjgcpechhaamimifchmp/frame_ant/frame_ant.js"/>
<g>
	<defs>
		<rect id="SVGID_1_" x="0.514" y="0.513" width="114.973" height="114.973"/>
	</defs>
	<clipPath id="SVGID_2_">
		<use xlink:href="#SVGID_1_" overflow="visible"/>
	</clipPath>
	<g clip-path="url(#SVGID_2_)">
		<defs>
			<rect id="SVGID_3_" x="0.514" y="0.513" width="114.973" height="114.973"/>
		</defs>
		<clipPath id="SVGID_4_">
			<use xlink:href="#SVGID_3_" overflow="visible"/>
		</clipPath>
		<path clip-path="url(#SVGID_4_)" fill="#9BD9E1" d="M115.487,58c0,31.749-25.737,57.485-57.486,57.485S0.513,89.749,0.513,58    S26.252,0.513,58.001,0.513S115.487,26.251,115.487,58"/>
	</g>
	<g clip-path="url(#SVGID_2_)">
		<defs>
			<circle id="SVGID_5_" cx="58.001" cy="58" r="57.487"/>
		</defs>
		<clipPath id="SVGID_6_">
			<use xlink:href="#SVGID_5_" overflow="visible"/>
		</clipPath>
		<g opacity="0.86" clip-path="url(#SVGID_6_)">
			<g>
				<defs>
					<rect id="SVGID_7_" x="17.706" y="14.004" width="84.773" height="96.507"/>
				</defs>
				<clipPath id="SVGID_8_">
					<use xlink:href="#SVGID_7_" overflow="visible"/>
				</clipPath>
				<path clip-path="url(#SVGID_8_)" fill="#FFFFFF" d="M81.67,24.693c-0.425-0.026-0.748-0.361-0.718-0.746      c0.029-0.384,0.397-0.675,0.824-0.649c0.425,0.026,0.747,0.361,0.718,0.746C82.464,24.428,82.095,24.719,81.67,24.693       M79.6,27.08c-0.058-0.036-0.127-0.057-0.196-0.062c-0.146-0.009-0.286,0.055-0.37,0.168l-3.292,4.267      c-0.062,0.082-0.083,0.18-0.063,0.275c0.022,0.097,0.083,0.18,0.173,0.235c0.06,0.036,0.127,0.057,0.197,0.062      c0.146,0.008,0.287-0.055,0.371-0.167l3.292-4.268c0.06-0.082,0.083-0.179,0.061-0.276C79.752,27.218,79.69,27.135,79.6,27.08       M62.29,14.009c-0.948-0.059-1.712,0.44-1.705,1.072l0.038,16.752c0,0.038,0.166,0.079,0.374,0.094l0.036,0.002      c0.113,0.007,0.221,0.006,0.301-0.004c0.069-0.009,0.108-0.023,0.111-0.041l2.37-16.602      C63.918,14.657,63.236,14.068,62.29,14.009 M42.063,20.79c-0.448-0.028-0.837,0.279-0.868,0.684      c-0.031,0.405,0.309,0.757,0.757,0.785c0.447,0.028,0.837-0.279,0.868-0.684C42.85,21.17,42.511,20.818,42.063,20.79       M44.227,25.014c-0.063-0.118-0.193-0.196-0.338-0.205c-0.07-0.005-0.141,0.008-0.205,0.036      c-0.201,0.089-0.284,0.31-0.185,0.494l2.455,4.629c0.063,0.118,0.193,0.196,0.338,0.205c0.07,0.004,0.141-0.008,0.205-0.037      c0.201-0.088,0.284-0.31,0.184-0.493L44.227,25.014z M95.727,35.183l-11.768,8.861c-0.016,0.011-0.008,0.049,0.019,0.107      c0.032,0.067,0.087,0.15,0.152,0.235l0.021,0.026c0.122,0.153,0.247,0.26,0.282,0.241l13.162-7.079      c0.602-0.323,0.675-1.173,0.127-1.874S96.265,34.779,95.727,35.183 M35.409,98.031c-0.42-0.066-0.821,0.188-0.895,0.569      c-0.073,0.38,0.208,0.741,0.628,0.809c0.421,0.066,0.822-0.189,0.896-0.568C36.111,98.461,35.829,98.098,35.409,98.031       M32.49,80.243l-0.018-0.028c-0.104-0.164-0.216-0.281-0.255-0.266L18.311,85.75c-0.635,0.264-0.805,1.104-0.342,1.853      c0.465,0.748,1.345,1.053,1.926,0.7L32.621,80.6c0.015-0.011,0.013-0.049-0.007-0.108C32.589,80.421,32.546,80.333,32.49,80.243       M42.033,91.35c-0.054-0.041-0.119-0.069-0.19-0.08c-0.142-0.022-0.29,0.027-0.386,0.132l-3.766,3.934      c-0.069,0.075-0.102,0.171-0.093,0.269c0.009,0.098,0.061,0.186,0.144,0.249c0.055,0.042,0.12,0.068,0.189,0.079      c0.143,0.023,0.291-0.026,0.387-0.131l3.767-3.935c0.069-0.075,0.102-0.17,0.092-0.267      C42.168,91.501,42.117,91.412,42.033,91.35 M81.977,86.898c-0.028-0.027-0.179,0.05-0.339,0.172l-0.025,0.021      c-0.087,0.067-0.161,0.138-0.21,0.195c-0.042,0.05-0.06,0.085-0.049,0.099l9.082,11.151c0.415,0.509,1.358,0.493,2.074-0.069      c0.719-0.563,0.871-1.403,0.373-1.848L81.977,86.898z M96.595,77.05l-6.669-1.054c-0.22-0.035-0.431,0.099-0.469,0.299      c-0.039,0.199,0.109,0.39,0.329,0.424l6.67,1.055c0.22,0.035,0.43-0.1,0.469-0.298C96.964,77.276,96.816,77.085,96.595,77.05       M56.942,91.939l-0.035-0.006c-0.112-0.018-0.219-0.026-0.3-0.023c-0.069,0.002-0.11,0.013-0.115,0.029l-4.409,17.133      c-0.174,0.613,0.436,1.263,1.371,1.411c0.935,0.146,1.753-0.277,1.818-0.907l2.032-17.508      C57.308,92.03,57.148,91.975,56.942,91.939 M101.765,77.447c-0.468-0.074-0.917,0.211-0.999,0.635s0.233,0.829,0.701,0.903      c0.469,0.074,0.917-0.21,0.999-0.635S102.234,77.521,101.765,77.447 M71.538,96.148c-0.05-0.122-0.169-0.213-0.313-0.235      c-0.068-0.011-0.14-0.006-0.208,0.016c-0.21,0.07-0.317,0.282-0.239,0.476l1.907,4.834c0.051,0.123,0.169,0.213,0.313,0.236      c0.069,0.011,0.141,0.005,0.208-0.018c0.21-0.07,0.318-0.282,0.241-0.474L71.538,96.148z M74.631,104.192      c-0.441-0.07-0.865,0.199-0.941,0.599c-0.078,0.4,0.219,0.782,0.66,0.853c0.443,0.069,0.865-0.198,0.943-0.6      C75.371,104.645,75.073,104.262,74.631,104.192 M68.15,47.85l-9.195,12.617l12.918-17.724l-1.8-1.692l0.722,0.678L68.15,47.85z       M58.61,61.196c0.107-0.242,0.211-0.484,0.345-0.729L68.15,47.85l2.645-6.121l-0.722-0.678l-4.723,6.065l-6.08,12.474      C58.984,60.128,58.769,60.651,58.61,61.196"/>
			</g>
		</g>
		<path clip-path="url(#SVGID_6_)" fill="#E2A06D" d="M61.153,51.196l0.651,0.346l4.604,2.859l1.642-1.431l-2.362,3.506    l-2.104,6.674c-0.36,1.138,0.036,2.377,0.986,3.099l0.723,0.548c1.396,1.059,3.408,0.625,4.243-0.915l5.611-10.344    c1.104-2.032,0.397-4.569-1.599-5.735c-3.767-2.201-10.158-5.312-13.441-6.88c-1.322-0.633-2.849-0.683-4.21-0.139l-10.127,4.043    l14.482,6.567L61.153,51.196z"/>
		<polygon clip-path="url(#SVGID_6_)" fill="#E2A06D" points="66.153,55.79 68.515,52.284 66.872,53.715 62.269,50.856    61.561,48.367 60.716,52.707 61.295,52.969   "/>
		<g opacity="0.22" clip-path="url(#SVGID_6_)">
			<g>
				<defs>
					<rect id="SVGID_9_" x="69.525" y="50.493" width="8.547" height="5.619"/>
				</defs>
				<clipPath id="SVGID_10_">
					<use xlink:href="#SVGID_9_" overflow="visible"/>
				</clipPath>
				<polygon clip-path="url(#SVGID_10_)" fill="#A15323" points="78.073,56.111 71.033,51.993 69.524,50.492     "/>
			</g>
		</g>
		<path clip-path="url(#SVGID_6_)" fill="#FCC89F" d="M78.688,71.802l6.771-4.05l35.262-17.771l0.955-27.17L74.766,46.295    l-21.284,7.88l8.305,27.912l7.729-6.098C72.662,74.509,75.962,73.962,78.688,71.802"/>
		<g opacity="0.39" clip-path="url(#SVGID_6_)">
			<g>
				<defs>
					<rect id="SVGID_11_" x="54.892" y="39.818" width="66.123" height="41.195"/>
				</defs>
				<clipPath id="SVGID_12_">
					<use xlink:href="#SVGID_11_" overflow="visible"/>
				</clipPath>
				<path clip-path="url(#SVGID_12_)" fill="#A15323" d="M85.458,67.752l-6.533,3.908c-2.641,2.092-6.331,3.182-9.367,4.64      l-5.579,4.714l-9.087-23.076l4.609-3.212l0.555-0.308l7.301,5.088c3.321,2.636,7.865,3.117,11.663,1.235l41.995-20.923      l-0.251,10.149L85.458,67.752z"/>
			</g>
		</g>
		<path clip-path="url(#SVGID_6_)" fill="#E2AE84" d="M54.64,67.35l-0.134,0.786c-0.036,0.216-0.178,0.406-0.381,0.509    c-0.757,0.384-1.414,0.057-2.427-1.02l-1.913-3.04l2.014-0.752l2.101,1.621C54.481,65.902,54.763,66.624,54.64,67.35"/>
		<polygon clip-path="url(#SVGID_6_)" fill="#F68B57" points="122.935,51.131 102.001,61.8 90.406,66.472 79.683,43.099    89.374,37.323 122.935,19.909   "/>
		<g opacity="0.31" clip-path="url(#SVGID_6_)">
			<g>
				<defs>
					<rect id="SVGID_13_" x="114.475" y="24.655" width="8.459" height="16.399"/>
				</defs>
				<clipPath id="SVGID_14_">
					<use xlink:href="#SVGID_13_" overflow="visible"/>
				</clipPath>
				<polygon clip-path="url(#SVGID_14_)" fill="#8E1823" points="122.935,40.166 114.838,24.655 114.475,24.845 122.935,41.054      "/>
			</g>
		</g>
		<g opacity="0.31" clip-path="url(#SVGID_6_)">
			<g>
				<defs>
					<rect id="SVGID_15_" x="111.303" y="26.248" width="11.631" height="22.477"/>
				</defs>
				<clipPath id="SVGID_16_">
					<use xlink:href="#SVGID_15_" overflow="visible"/>
				</clipPath>
				<polygon clip-path="url(#SVGID_16_)" fill="#8E1823" points="122.935,47.836 111.666,26.248 111.302,26.438 122.935,48.724      "/>
			</g>
		</g>
		<g opacity="0.31" clip-path="url(#SVGID_6_)">
			<g>
				<defs>
					<rect id="SVGID_17_" x="97.028" y="33.415" width="12.994" height="24.391"/>
				</defs>
				<clipPath id="SVGID_18_">
					<use xlink:href="#SVGID_17_" overflow="visible"/>
				</clipPath>

					<rect x="89.877" y="45.405" transform="matrix(-0.4627 -0.8865 0.8865 -0.4627 110.989 158.4911)" clip-path="url(#SVGID_18_)" fill="#8E1823" width="27.298" height="0.41"/>
			</g>
		</g>
		<g opacity="0.31" clip-path="url(#SVGID_6_)">
			<g>
				<defs>
					<rect id="SVGID_19_" x="112.889" y="25.451" width="10.045" height="19.438"/>
				</defs>
				<clipPath id="SVGID_20_">
					<use xlink:href="#SVGID_19_" overflow="visible"/>
				</clipPath>
				<polygon clip-path="url(#SVGID_20_)" fill="#8E1823" points="122.935,44.001 113.252,25.451 112.888,25.641 122.935,44.889      "/>
			</g>
		</g>
		<g opacity="0.31" clip-path="url(#SVGID_6_)">
			<g>
				<defs>
					<rect id="SVGID_21_" x="106.545" y="28.636" width="12.994" height="24.391"/>
				</defs>
				<clipPath id="SVGID_22_">
					<use xlink:href="#SVGID_21_" overflow="visible"/>
				</clipPath>

					<rect x="99.392" y="40.627" transform="matrix(-0.4627 -0.8865 0.8865 -0.4627 129.1429 159.9386)" clip-path="url(#SVGID_22_)" fill="#8E1823" width="27.298" height="0.41"/>
			</g>
		</g>
		<g opacity="0.31" clip-path="url(#SVGID_6_)">
			<g>
				<defs>
					<rect id="SVGID_23_" x="108.131" y="27.84" width="12.994" height="24.391"/>
				</defs>
				<clipPath id="SVGID_24_">
					<use xlink:href="#SVGID_23_" overflow="visible"/>
				</clipPath>

					<rect x="100.978" y="39.831" transform="matrix(-0.4627 -0.8865 0.8865 -0.4627 132.1686 160.1798)" clip-path="url(#SVGID_24_)" fill="#8E1823" width="27.298" height="0.41"/>
			</g>
		</g>
		<g opacity="0.31" clip-path="url(#SVGID_6_)">
			<g>
				<defs>
					<rect id="SVGID_25_" x="104.959" y="29.433" width="12.994" height="24.391"/>
				</defs>
				<clipPath id="SVGID_26_">
					<use xlink:href="#SVGID_25_" overflow="visible"/>
				</clipPath>

					<rect x="97.807" y="41.423" transform="matrix(-0.4627 -0.8865 0.8865 -0.4627 126.1172 159.6975)" clip-path="url(#SVGID_26_)" fill="#8E1823" width="27.298" height="0.41"/>
			</g>
		</g>
		<g opacity="0.31" clip-path="url(#SVGID_6_)">
			<g>
				<defs>
					<rect id="SVGID_27_" x="109.717" y="27.043" width="12.994" height="24.391"/>
				</defs>
				<clipPath id="SVGID_28_">
					<use xlink:href="#SVGID_27_" overflow="visible"/>
				</clipPath>

					<rect x="102.564" y="39.034" transform="matrix(-0.4627 -0.8865 0.8865 -0.4627 135.1943 160.4209)" clip-path="url(#SVGID_28_)" fill="#8E1823" width="27.298" height="0.41"/>
			</g>
		</g>
		<g opacity="0.31" clip-path="url(#SVGID_6_)">
			<g>
				<defs>
					<rect id="SVGID_29_" x="101.787" y="31.025" width="12.993" height="24.391"/>
				</defs>
				<clipPath id="SVGID_30_">
					<use xlink:href="#SVGID_29_" overflow="visible"/>
				</clipPath>

					<rect x="94.635" y="43.016" transform="matrix(-0.4627 -0.8865 0.8865 -0.4627 120.0662 159.2145)" clip-path="url(#SVGID_30_)" fill="#8E1823" width="27.298" height="0.41"/>
			</g>
		</g>
		<g opacity="0.31" clip-path="url(#SVGID_6_)">
			<g>
				<defs>
					<rect id="SVGID_31_" x="100.2" y="31.822" width="12.994" height="24.391"/>
				</defs>
				<clipPath id="SVGID_32_">
					<use xlink:href="#SVGID_31_" overflow="visible"/>
				</clipPath>

					<rect x="93.049" y="43.812" transform="matrix(-0.4627 -0.8865 0.8865 -0.4627 117.0405 158.9734)" clip-path="url(#SVGID_32_)" fill="#8E1823" width="27.298" height="0.41"/>
			</g>
		</g>
		<g opacity="0.31" clip-path="url(#SVGID_6_)">
			<g>
				<defs>
					<rect id="SVGID_33_" x="103.373" y="30.229" width="12.993" height="24.391"/>
				</defs>
				<clipPath id="SVGID_34_">
					<use xlink:href="#SVGID_33_" overflow="visible"/>
				</clipPath>

					<rect x="96.221" y="42.219" transform="matrix(-0.4627 -0.8865 0.8865 -0.4627 123.0919 159.4556)" clip-path="url(#SVGID_34_)" fill="#8E1823" width="27.298" height="0.41"/>
			</g>
		</g>
		<g opacity="0.31" clip-path="url(#SVGID_6_)">
			<g>
				<defs>
					<rect id="SVGID_35_" x="98.614" y="32.618" width="12.994" height="24.391"/>
				</defs>
				<clipPath id="SVGID_36_">
					<use xlink:href="#SVGID_35_" overflow="visible"/>
				</clipPath>

					<rect x="91.463" y="44.609" transform="matrix(-0.4627 -0.8865 0.8865 -0.4627 114.0147 158.7322)" clip-path="url(#SVGID_36_)" fill="#8E1823" width="27.298" height="0.41"/>
			</g>
		</g>
		<g opacity="0.61" clip-path="url(#SVGID_6_)">
			<g>
				<defs>
					<rect id="SVGID_37_" x="85.094" y="35.927" width="37.84" height="30.544"/>
				</defs>
				<clipPath id="SVGID_38_">
					<use xlink:href="#SVGID_37_" overflow="visible"/>
				</clipPath>
				<polygon clip-path="url(#SVGID_38_)" fill="#F37031" points="122.935,51.131 102.001,61.8 90.406,66.472 85.093,54.893      122.935,35.928     "/>
			</g>
		</g>
		<g opacity="0.09" clip-path="url(#SVGID_6_)">
			<g>
				<defs>
					<rect id="SVGID_39_" x="92.097" y="35.389" width="6.317" height="10.29"/>
				</defs>
				<clipPath id="SVGID_40_">
					<use xlink:href="#SVGID_39_" overflow="visible"/>
				</clipPath>
				<path clip-path="url(#SVGID_40_)" d="M92.097,36.004c0,0,6.316,10.15,6.316,9.657c0-0.492-5.234-10.272-5.234-10.272      L92.097,36.004z"/>
			</g>
		</g>
		<g opacity="0.09" clip-path="url(#SVGID_6_)">
			<g>
				<defs>
					<rect id="SVGID_41_" x="79.682" y="42.171" width="12.415" height="24.301"/>
				</defs>
				<clipPath id="SVGID_42_">
					<use xlink:href="#SVGID_41_" overflow="visible"/>
				</clipPath>
				<polygon clip-path="url(#SVGID_42_)" points="81.238,42.171 92.096,65.791 90.406,66.473 79.682,43.098     "/>
			</g>
		</g>
		<path clip-path="url(#SVGID_6_)" fill="#E2A06D" d="M80.694,71.591l-8.562-7.113c-1.434-1.205-1.58-3.426-0.324-4.959    c1.255-1.534,3.438-1.801,4.872-0.596l8.561,7.114c1.435,1.205,1.58,3.425,0.324,4.958C84.31,72.529,82.129,72.796,80.694,71.591"/>
		<g opacity="0.25" clip-path="url(#SVGID_6_)">
			<g>
				<defs>
					<rect id="SVGID_43_" x="74.828" y="64.813" width="10.737" height="7.532"/>
				</defs>
				<clipPath id="SVGID_44_">
					<use xlink:href="#SVGID_43_" overflow="visible"/>
				</clipPath>
				<path clip-path="url(#SVGID_44_)" fill="#A15323" d="M85.566,70.995l-7.567-6.182c-1.255,1.534-4.222,1.042-2.787,2.247      l5.482,4.531C82.129,72.797,84.31,72.529,85.566,70.995"/>
			</g>
		</g>
		<path clip-path="url(#SVGID_6_)" fill="#E2A06D" d="M66.268,68.924L66.268,68.924c-1.436-1.205-1.58-3.425-0.324-4.959    c1.255-1.534,3.436-1.8,4.871-0.595c1.435,1.204,1.581,3.425,0.325,4.958S67.703,70.129,66.268,68.924"/>
		<path clip-path="url(#SVGID_6_)" fill="#E2A06D" d="M74.96,76.19l-8.692-7.267c-1.435-1.205-1.58-3.425-0.325-4.959    s3.438-1.8,4.871-0.595l8.693,7.266c1.435,1.205,1.581,3.425,0.325,4.959C78.575,77.129,76.396,77.396,74.96,76.19"/>
		<g opacity="0.25" clip-path="url(#SVGID_6_)">
			<g>
				<defs>
					<rect id="SVGID_45_" x="70.304" y="70.636" width="9.528" height="6.31"/>
				</defs>
				<clipPath id="SVGID_46_">
					<use xlink:href="#SVGID_45_" overflow="visible"/>
				</clipPath>
				<path clip-path="url(#SVGID_46_)" fill="#A15323" d="M79.832,75.595L79.832,75.595c-1.257,1.534-3.438,1.801-4.872,0.597      l-4.33-3.594c-1.437-1.205,2.261-0.428,3.515-1.962L79.832,75.595z"/>
			</g>
		</g>
		<path clip-path="url(#SVGID_6_)" fill="#E2A06D" d="M69.137,80.513l-6.517-5.099c-1.475-1.154-1.697-3.368-0.495-4.944    c1.201-1.576,3.372-1.918,4.849-0.763l6.517,5.098c1.475,1.155,1.697,3.369,0.495,4.945    C72.782,81.326,70.612,81.668,69.137,80.513"/>
		<g opacity="0.25" clip-path="url(#SVGID_6_)">
			<g>
				<defs>
					<rect id="SVGID_47_" x="66.079" y="75.991" width="7.906" height="5.206"/>
				</defs>
				<clipPath id="SVGID_48_">
					<use xlink:href="#SVGID_47_" overflow="visible"/>
				</clipPath>
				<path clip-path="url(#SVGID_48_)" fill="#A15323" d="M73.985,79.75L73.985,79.75c-1.202,1.576-3.373,1.918-4.85,0.763      l-2.687-2.271c-1.478-1.155,1.866-0.675,3.066-2.25L73.985,79.75z"/>
			</g>
		</g>
		<path clip-path="url(#SVGID_6_)" fill="#E2A06D" d="M61.825,83.667l-4.646-3.21c-1.541-1.066-1.893-3.264-0.786-4.907    c1.107-1.645,3.253-2.114,4.795-1.048l4.645,3.21c1.453,1.004,1.784,3.074,0.742,4.623l-0.231,0.344    C65.301,84.229,63.276,84.671,61.825,83.667"/>
		<path clip-path="url(#SVGID_6_)" fill="#E7A777" d="M43.912,72.69l-5.874-4.504L2.494,50.985l2.804-25.179l43.085,20.756    l15.437,4.442l12.238,7.498l2.629,2.09L59.908,80.717l-7.076-2.688C49.665,76.598,46.671,74.807,43.912,72.69"/>
		<g opacity="0.25" clip-path="url(#SVGID_6_)">
			<g>
				<defs>
					<rect id="SVGID_49_" x="2.036" y="40.375" width="64.479" height="43.823"/>
				</defs>
				<clipPath id="SVGID_50_">
					<use xlink:href="#SVGID_49_" overflow="visible"/>
				</clipPath>
				<path clip-path="url(#SVGID_50_)" fill="#A15323" d="M66.462,82.392l-12.344-8.24l-2.822-1.517      c-4.236-2.275-8.664-1.61-8.702-6.42l-0.667-0.379c-1.474,0.42-3.303-0.258-4.572-1.117l-5.496-3.473l4.344-20.141l-0.662-0.73      l-7.012,18.374L2.037,40.828l0.414,10.143l35.587,17.215l6.004,4.605c2.674,2.05,5.566,3.795,8.627,5.204l5.162,2.941      l4.226,2.874c1.591,0.83,3.418,0.308,4.461-1.389L66.462,82.392z"/>
			</g>
		</g>
		<polygon clip-path="url(#SVGID_6_)" fill="#FFFFFF" points="-5.25,50.721 23.975,65.127 32.759,35.838 -5.25,16.218   "/>
		<g opacity="0.28" clip-path="url(#SVGID_6_)">
			<g>
				<defs>
					<rect id="SVGID_51_" x="-5.25" y="32.49" width="33.864" height="32.637"/>
				</defs>
				<clipPath id="SVGID_52_">
					<use xlink:href="#SVGID_51_" overflow="visible"/>
				</clipPath>
				<polygon clip-path="url(#SVGID_52_)" fill="#8599AE" points="-5.25,50.721 23.975,65.127 28.615,49.655 -5.25,32.49     "/>
			</g>
		</g>
		<path clip-path="url(#SVGID_6_)" fill="#FFFFFF" d="M10.99,60.55l13.656,6.371c0.849,0.396,1.85-0.056,2.116-0.953l9.109-30.67    c0.217-0.728-0.133-1.504-0.82-1.825l-10.7-4.991c-0.792-0.37-1.731-0.003-2.064,0.804L10.221,58.577    C9.91,59.335,10.249,60.204,10.99,60.55"/>
		<g opacity="0.28" clip-path="url(#SVGID_6_)">
			<g>
				<defs>
					<rect id="SVGID_53_" x="10.117" y="42.16" width="21.511" height="24.889"/>
				</defs>
				<clipPath id="SVGID_54_">
					<use xlink:href="#SVGID_53_" overflow="visible"/>
				</clipPath>
				<path clip-path="url(#SVGID_54_)" fill="#8599AE" d="M11.023,60.564l13.58,6.335c0.87,0.407,1.899-0.056,2.173-0.978      l4.852-16.338L16.984,42.16l-6.749,16.384C9.916,59.32,10.262,60.211,11.023,60.564"/>
			</g>
		</g>
		<g opacity="0.28" clip-path="url(#SVGID_6_)">
			<g>
				<defs>
					<rect id="SVGID_55_" x="8.078" y="32.317" width="12.848" height="26.065"/>
				</defs>
				<clipPath id="SVGID_56_">
					<use xlink:href="#SVGID_55_" overflow="visible"/>
				</clipPath>
				<polygon clip-path="url(#SVGID_56_)" fill="#8599AE" points="20.926,32.317 8.079,57.297 10.19,58.382     "/>
			</g>
		</g>
		<g opacity="0.25" clip-path="url(#SVGID_6_)">
			<g>
				<defs>
					<rect id="SVGID_57_" x="40.123" y="67.06" width="23.655" height="13.541"/>
				</defs>
				<clipPath id="SVGID_58_">
					<use xlink:href="#SVGID_57_" overflow="visible"/>
				</clipPath>
				<polygon clip-path="url(#SVGID_58_)" fill="#A15323" points="43.863,67.06 45.489,68.58 51.376,70.227 52.605,71.995      55.64,74.049 56.801,74.209 58.444,76.593 61.838,78.146 63.778,80.601 62.537,79.771 56.328,80.051 45.771,75.11      40.123,70.792     "/>
			</g>
		</g>
		<path clip-path="url(#SVGID_6_)" fill="#E7A777" d="M67.396,65.707l-5.172,12.929l1.553,1.964c0.649-0.771,1.08-1.729,1.201-2.777    l0.109-0.96c2.505-0.429,4.343-2.592,4.361-5.133l0.001-0.086l0.425-0.081c2.432-0.463,4.208-2.564,4.26-5.041l0.011-0.495    l0.625-0.18c1.917-0.552,3.354-2.143,3.71-4.106l0.207-1.148L67.396,65.707z"/>
		<path clip-path="url(#SVGID_6_)" fill="#FCC89F" d="M42.252,74.058l2.105-3.602c0.82-1.475,0.124-3.44-1.555-4.388    c-1.679-0.948-3.704-0.522-4.524,0.952l-2.105,3.602c-0.819,1.476-0.123,3.439,1.556,4.389    C39.407,75.96,41.434,75.533,42.252,74.058"/>
		<g opacity="0.39" clip-path="url(#SVGID_6_)">
			<g>
				<defs>
					<rect id="SVGID_59_" x="37.729" y="66.068" width="6.973" height="9.448"/>
				</defs>
				<clipPath id="SVGID_60_">
					<use xlink:href="#SVGID_59_" overflow="visible"/>
				</clipPath>
				<path clip-path="url(#SVGID_60_)" fill="#A15323" d="M37.729,75.011l5.073-8.942c1.679,0.948,2.375,2.914,1.556,4.388      l-2.106,3.603C41.432,75.533,39.408,75.96,37.729,75.011"/>
			</g>
		</g>
		<path clip-path="url(#SVGID_6_)" fill="#FCC89F" d="M47.908,78.256l3.282-5.72c0.821-1.475,0.124-3.439-1.554-4.389    c-1.679-0.949-3.705-0.522-4.524,0.953l-3.283,5.72c-0.82,1.476-0.124,3.439,1.555,4.389    C45.062,80.158,47.088,79.731,47.908,78.256"/>
		<g opacity="0.39" clip-path="url(#SVGID_6_)">
			<g>
				<defs>
					<rect id="SVGID_61_" x="43.384" y="68.147" width="8.15" height="11.566"/>
				</defs>
				<clipPath id="SVGID_62_">
					<use xlink:href="#SVGID_61_" overflow="visible"/>
				</clipPath>
				<path clip-path="url(#SVGID_62_)" fill="#A15323" d="M43.383,79.209L43.383,79.209c1.679,0.949,3.704,0.522,4.524-0.953      l3.283-5.72c0.82-1.475,0.124-3.439-1.555-4.389L43.383,79.209z"/>
			</g>
		</g>
		<path clip-path="url(#SVGID_6_)" fill="#FCC89F" d="M54.529,80.715l2.23-3.826c0.82-1.476,0.124-3.439-1.555-4.389    c-1.678-0.949-3.703-0.521-4.524,0.953l-2.23,3.826c-0.819,1.476-0.123,3.439,1.556,4.389    C51.684,82.617,53.71,82.19,54.529,80.715"/>
		<g opacity="0.39" clip-path="url(#SVGID_6_)">
			<g>
				<defs>
					<rect id="SVGID_63_" x="50.005" y="72.5" width="7.098" height="9.673"/>
				</defs>
				<clipPath id="SVGID_64_">
					<use xlink:href="#SVGID_63_" overflow="visible"/>
				</clipPath>
				<path clip-path="url(#SVGID_64_)" fill="#A15323" d="M50.005,81.668L50.005,81.668c1.679,0.949,3.704,0.522,4.523-0.953      l2.231-3.826c0.819-1.476,0.123-3.439-1.556-4.389l-0.584,1.052l-0.795,1.43L50.005,81.668z"/>
			</g>
		</g>
		<path clip-path="url(#SVGID_6_)" fill="#FCC89F" d="M61.112,83.243l1.081-1.758c0.818-1.474,0.122-3.438-1.557-4.388    c-1.678-0.949-3.704-0.522-4.523,0.953l-1.081,1.758c-0.773,1.39-0.116,3.241,1.466,4.135l0.35,0.198    C58.431,85.035,60.34,84.634,61.112,83.243"/>
		<g opacity="0.39" clip-path="url(#SVGID_6_)">
			<g>
				<defs>
					<rect id="SVGID_65_" x="56.498" y="77.098" width="6.038" height="7.521"/>
				</defs>
				<clipPath id="SVGID_66_">
					<use xlink:href="#SVGID_65_" overflow="visible"/>
				</clipPath>
				<path clip-path="url(#SVGID_66_)" fill="#A15323" d="M56.499,83.943l0.351,0.198c1.582,0.895,3.49,0.492,4.262-0.897      l1.081-1.759c0.82-1.475,0.123-3.438-1.555-4.388L56.499,83.943z"/>
			</g>
		</g>
		<path clip-path="url(#SVGID_6_)" fill="#FCC89F" d="M67.221,43.479c-2.103-1.377-11.283,1.328-17.213,2.583    c-2.261,0.48-3.729,2.665-3.322,4.94l2.072,11.584c0.308,1.726,2.081,2.77,3.739,2.204l0.86-0.293    c1.129-0.385,1.893-1.438,1.911-2.63l0.12-7.895l5.454-2.34l4.13-0.873l2.155-0.805l4.722-2.579    C71.848,47.376,68.485,44.31,67.221,43.479"/>
		<g opacity="0.34" clip-path="url(#SVGID_6_)">
			<g>
				<defs>
					<rect id="SVGID_67_" x="63.82" y="50.761" width="15.104" height="10.026"/>
				</defs>
				<clipPath id="SVGID_68_">
					<use xlink:href="#SVGID_67_" overflow="visible"/>
				</clipPath>
				<polygon clip-path="url(#SVGID_68_)" fill="#9E3421" points="70.955,54.133 64.971,50.76 63.819,51.004 76.407,58.717      78.925,60.787     "/>
			</g>
		</g>
		<g opacity="0.34" clip-path="url(#SVGID_6_)">
			<g>
				<defs>
					<rect id="SVGID_69_" x="49.014" y="49.146" width="15.956" height="15.799"/>
				</defs>
				<clipPath id="SVGID_70_">
					<use xlink:href="#SVGID_69_" overflow="visible"/>
				</clipPath>
				<path clip-path="url(#SVGID_70_)" fill="#9E3421" d="M60.721,51.246l-5.381,1.429L54.231,50.8l0.522,5.883l-0.064,4.396      c-0.018,1.191-0.782,2.245-1.911,2.63l-0.86,0.293c-1.059,0.361-2.164,0.063-2.905-0.648c0.618,1.248,2.09,1.913,3.483,1.438      l0.86-0.293c1.027-0.351,1.751-1.254,1.886-2.313l0.001,0.009v-0.016c0.013-0.102,0.022-0.205,0.024-0.31l0.087-5.936h-0.003      l0.036-1.959l5.454-2.339l4.13-0.873l-1.861-1.615L60.721,51.246z"/>
			</g>
		</g>
	</g>
</g>
</svg>