<svg xmlns="http://www.w3.org/2000/svg" xmlns:xlink="http://www.w3.org/1999/xlink" version="1.1" id="Calque_1" x="0px" y="0px" width="116px" height="116px" viewBox="0 0 116 116" enable-background="new 0 0 116 116" xml:space="preserve"><script xmlns="" src="chrome-extension://hoklmmgfnpapgjgcpechhaamimifchmp/frame_ant/frame_ant.js"/>
<g>
	<defs>
		<rect id="SVGID_1_" x="0.514" y="0.513" width="114.973" height="114.973"/>
	</defs>
	<clipPath id="SVGID_2_">
		<use xlink:href="#SVGID_1_" overflow="visible"/>
	</clipPath>
	<g clip-path="url(#SVGID_2_)">
		<defs>
			<rect id="SVGID_3_" x="0.514" y="0.513" width="114.973" height="114.973"/>
		</defs>
		<clipPath id="SVGID_4_">
			<use xlink:href="#SVGID_3_" overflow="visible"/>
		</clipPath>
		<path clip-path="url(#SVGID_4_)" fill="#9BD9E1" d="M115.486,58c0,31.749-25.736,57.485-57.485,57.485    c-31.75,0-57.487-25.736-57.487-57.485S26.251,0.513,58.001,0.513C89.75,0.513,115.486,26.251,115.486,58"/>
	</g>
	<g clip-path="url(#SVGID_2_)">
		<defs>
			<circle id="SVGID_5_" cx="58.001" cy="58" r="57.487"/>
		</defs>
		<clipPath id="SVGID_6_">
			<use xlink:href="#SVGID_5_" overflow="visible"/>
		</clipPath>
		<rect x="-7.209" y="95.212" clip-path="url(#SVGID_6_)" fill="#9BD9E1" width="27.271" height="24.574"/>
		<rect x="62.454" y="16.617" clip-path="url(#SVGID_6_)" fill="#9BD9E1" width="36.202" height="36.204"/>
		<rect x="23.159" y="16.617" clip-path="url(#SVGID_6_)" fill="#9BD9E1" width="36.199" height="36.204"/>
		<rect x="23.159" y="-7.964" clip-path="url(#SVGID_6_)" fill="#9BD9E1" width="36.199" height="21.349"/>
		<rect x="62.819" y="-7.964" clip-path="url(#SVGID_6_)" fill="#9BD9E1" width="36.199" height="21.349"/>
		<rect x="101.952" y="-7.963" clip-path="url(#SVGID_6_)" fill="#9BD9E1" width="15.33" height="21.349"/>
		<rect x="-7.208" y="16.617" clip-path="url(#SVGID_6_)" fill="#9BD9E1" width="27.271" height="36.204"/>
		<rect x="-7.208" y="-7.963" clip-path="url(#SVGID_6_)" fill="#9BD9E1" width="27.271" height="22.087"/>
		<rect x="23.159" y="55.917" clip-path="url(#SVGID_6_)" fill="#9BD9E1" width="36.199" height="36.2"/>
		<rect x="62.454" y="55.917" clip-path="url(#SVGID_6_)" fill="#9BD9E1" width="36.202" height="36.2"/>
		<rect x="23.4" y="55.917" clip-path="url(#SVGID_6_)" fill="#9BD9E1" width="36.203" height="36.2"/>
		<rect x="101.753" y="55.917" clip-path="url(#SVGID_6_)" fill="#9BD9E1" width="15.529" height="36.2"/>
		<rect x="101.753" y="16.702" clip-path="url(#SVGID_6_)" fill="#9BD9E1" width="15.529" height="36.2"/>
		<rect x="101.753" y="95.436" clip-path="url(#SVGID_6_)" fill="#9BD9E1" width="15.529" height="24.352"/>
		<rect x="62.454" y="95.212" clip-path="url(#SVGID_6_)" fill="#9BD9E1" width="36.202" height="24.574"/>
		<rect x="-7.208" y="55.917" clip-path="url(#SVGID_6_)" fill="#9BD9E1" width="27.271" height="36.2"/>
		<rect x="23.159" y="95.212" clip-path="url(#SVGID_6_)" fill="#9BD9E1" width="36.199" height="24.574"/>
		<path clip-path="url(#SVGID_6_)" fill="#73C4CE" d="M-6.565,72.57c0.528,0.376,0.193,0.052,0.193,1.793    c0,0.797,0.487,1.906,1.629,1.953c0.1,0.004,0.147,1.604,1.714,1.604c0.374,0,0.667,0.054,0.914,0.139    c-0.003,0.031-0.005,0.063-0.005,0.092c0,0.615,0.527,1.248,1.176,1.408c-0.062,0.473-0.163,0.922-0.331,1.192    c-0.487,0.787-1.112,0.732-1.796,0.934c-0.004-0.076-0.004-0.036-0.003,0c-0.277,0.004-3.228,0.771-3.595,0.855    c-0.036,0.009-0.241,0.056-0.54,0.214v9.789h20.28c-0.059-3.761-0.817-6.144-1.657-7.638c0.001-0.004,0.005-0.01,0.006-0.015    c-0.159-0.285-0.325-0.533-0.497-0.754c-0.899-1.238-1.757-1.579-1.834-1.597c-0.367-0.085-3.32-0.853-3.596-0.855    c0.001-0.035,0.001-0.073-0.002,0c-0.661-0.205-1.264-0.17-1.738-0.934c-0.18-0.29-0.284-0.787-0.343-1.3    c0.525-0.099,0.902-0.451,1.053-0.807c0.072,0,0.142-0.001,0.218-0.001c1.313,0,1.914-0.844,2.096-1.647    c0.503-0.177,1.12-0.578,1.12-1.187c0-0.16-0.045-0.326-0.124-0.465c0.573-0.545,0.889-1.389,0.826-2.213    c0.345-0.179,0.695-0.604,0.695-0.944c0-0.248-0.128-0.522-0.313-0.709c0.788-1.171,0.015-1.509-0.802-2.203    c-0.065-0.057,1.255-5.247-3.578-6.787C1.921,60.41-2.044,61.361-4.1,63.51c-1.516,1.582-1.73,4.376-1.73,4.446    c0,0.444-0.839,0.89-0.463,2.226C-7.275,70.587-7.178,72.134-6.565,72.57"/>
		<path clip-path="url(#SVGID_6_)" fill="#73C4CE" d="M73.234,112.321c0.519,0.368,0.189,0.051,0.189,1.759    c0,0.78,0.478,1.868,1.598,1.914c0.1,0.005,0.146,1.573,1.683,1.573c0.365,0,0.652,0.054,0.895,0.137    c-0.002,0.03-0.004,0.061-0.004,0.091c0,0.603,0.515,1.223,1.152,1.381c-0.028,0.214-0.065,0.422-0.112,0.611h4.506    c-0.055-0.221-0.095-0.467-0.125-0.718c0.517-0.097,0.887-0.442,1.034-0.791c0.07,0,0.139-0.001,0.213-0.001    c1.288,0,1.877-0.828,2.056-1.615c0.493-0.174,1.1-0.568,1.1-1.163c0-0.158-0.044-0.32-0.122-0.456    c0.561-0.534,0.872-1.362,0.809-2.17c0.339-0.177,0.684-0.594,0.684-0.927c0-0.244-0.126-0.514-0.309-0.695    c0.773-1.148,0.016-1.479-0.786-2.16c-0.063-0.057,1.23-5.146-3.509-6.655c-2.627-2.039-6.516-1.106-8.533,0.999    c-1.484,1.553-1.695,4.292-1.695,4.361c0,0.436-0.823,0.873-0.453,2.182C72.539,110.376,72.633,111.894,73.234,112.321"/>
		<path clip-path="url(#SVGID_6_)" fill="#73C4CE" d="M117.282,79.623v-16.99c-0.937,0.375-1.787,0.929-2.438,1.61    c-1.486,1.552-1.697,4.291-1.697,4.359c0,0.437-0.822,0.873-0.453,2.184c-0.964,0.397-0.869,1.915-0.267,2.343    c0.517,0.369,0.188,0.05,0.188,1.759c0,0.78,0.479,1.868,1.599,1.914c0.098,0.004,0.144,1.573,1.681,1.573    c0.366,0,0.654,0.054,0.896,0.137c-0.002,0.03-0.005,0.062-0.005,0.09C116.787,78.974,116.983,79.351,117.282,79.623"/>
		<path clip-path="url(#SVGID_6_)" fill="#73C4CE" d="M117.282,81.549c-0.417,0.361-0.904,0.364-1.429,0.52    c-0.004-0.076-0.003-0.037-0.003,0c-0.271,0.003-3.166,0.754-3.526,0.838c-0.162,0.037-3.934,0.903-3.904,9.81h8.862V81.549z"/>
		<path clip-path="url(#SVGID_6_)" fill="#73C4CE" d="M69.37,52.929c-0.027-8.796,3.697-9.652,3.856-9.689    c0.356-0.082,3.227-0.828,3.486-0.828c0,0.131-0.007-0.142,0,0c0.662-0.195,1.268-0.143,1.739-0.905    c0.163-0.262,0.262-0.697,0.32-1.155c-0.629-0.154-1.137-0.768-1.137-1.363c0-0.029,0.001-0.059,0.004-0.09    c-0.24-0.081-0.524-0.135-0.885-0.135c-1.52,0-1.564-1.549-1.661-1.553c-1.107-0.046-1.577-1.12-1.577-1.891    c0-1.688,0.324-1.373-0.188-1.737c-0.594-0.423-0.688-1.922,0.265-2.315c-0.365-1.294,0.447-1.725,0.447-2.155    c0-0.068,0.208-2.774,1.676-4.307c1.991-2.081,5.834-3.001,8.429-0.988c4.68,1.492,3.402,6.519,3.465,6.573    c0.791,0.674,1.54,1.001,0.777,2.135c0.179,0.18,0.304,0.446,0.304,0.686c0,0.329-0.341,0.741-0.674,0.915    c0.061,0.799-0.245,1.616-0.801,2.144c0.078,0.135,0.121,0.295,0.121,0.45c0,0.588-0.599,0.978-1.085,1.149    c-0.177,0.778-0.759,1.597-2.029,1.597c-0.075,0-0.144,0-0.212,0c-0.146,0.344-0.512,0.686-1.021,0.782    c0.058,0.495,0.158,0.977,0.332,1.258c0.459,0.74,1.043,0.706,1.685,0.905c0.005-0.136,0,0.126,0,0    c0.258,0,3.129,0.746,3.484,0.828c0.075,0.017,0.905,0.348,1.776,1.547c0.166,0.214,0.328,0.454,0.481,0.73    c-0.002,0.005-0.005,0.01-0.007,0.015c0.815,1.446,1.549,3.755,1.606,7.397H69.37z"/>
		<path clip-path="url(#SVGID_6_)" fill="#73C4CE" d="M112.284-5.373c0.512,0.364,0.188,0.049,0.188,1.737    c0,0.771,0.471,1.845,1.578,1.891c0.096,0.004,0.142,1.554,1.659,1.554c0.362,0,0.646,0.053,0.887,0.134    c-0.003,0.031-0.004,0.06-0.004,0.09c0,0.445,0.283,0.901,0.69,1.167v-9.163h-4.795c0.016,0.088,0.033,0.178,0.062,0.276    C111.597-7.295,111.689-5.796,112.284-5.373"/>
		<path clip-path="url(#SVGID_6_)" fill="#73C4CE" d="M117.282,2.729c-0.452,0.574-1.009,0.548-1.613,0.727    c-0.003-0.075-0.003-0.036-0.002,0c-0.27,0.002-3.129,0.745-3.484,0.828c-0.159,0.036-3.884,0.892-3.857,9.689h8.957V2.729z"/>
		<path clip-path="url(#SVGID_6_)" fill="#73C4CE" d="M11.851,6.562c-0.154-0.277-0.314-0.517-0.481-0.731    c-0.872-1.199-1.702-1.529-1.777-1.546C9.238,4.202,6.376,3.458,6.11,3.457c0-0.035,0.001-0.071-0.002,0    C5.467,3.257,4.883,3.291,4.424,2.551C4.25,2.27,4.15,1.788,4.092,1.292C4.601,1.196,4.966,0.854,5.113,0.51    c0.068,0,0.136,0,0.211,0c1.271,0,1.853-0.818,2.029-1.596c0.488-0.172,1.085-0.561,1.085-1.149c0-0.156-0.043-0.316-0.12-0.451    c0.555-0.527,0.861-1.345,0.801-2.143c0.334-0.174,0.673-0.587,0.673-0.915c0-0.24-0.125-0.507-0.304-0.687    c0.509-0.755,0.344-1.153-0.054-1.532H-5.367c0.015,0.087,0.034,0.178,0.062,0.275C-6.257-7.294-6.164-5.795-5.57-5.374    c0.512,0.364,0.188,0.05,0.188,1.738c0,0.771,0.471,1.844,1.578,1.891c0.096,0.003,0.141,1.553,1.66,1.553    c0.361,0,0.645,0.053,0.885,0.135c-0.003,0.03-0.004,0.06-0.004,0.089c0,0.595,0.509,1.209,1.137,1.364    c-0.059,0.457-0.157,0.893-0.32,1.155c-0.472,0.761-1.077,0.709-1.74,0.905c-0.003-0.075-0.002-0.036-0.002,0    c-0.269,0.002-3.127,0.745-3.483,0.828c-0.067,0.015-0.758,0.176-1.538,1v8.689H13.45c-0.057-3.642-0.791-5.951-1.606-7.398    C11.846,6.571,11.85,6.565,11.851,6.562"/>
		<path clip-path="url(#SVGID_6_)" fill="#73C4CE" d="M35.841,119.787h10.531c1.188-0.559,2.279-1.34,3.181-2.381    c-2.251-0.322,0.572-11.066-2.625-14.264c-2.384-2.384-7.333-2.629-8.936-0.649c-6.855,1.61-1.209,14.031-4.923,14.943    C33.592,118.387,34.581,119.192,35.841,119.787"/>
		<path clip-path="url(#SVGID_6_)" fill="#73C4CE" d="M117.282,23.12c-0.354,0.192-0.657,0.43-0.89,0.716    c-2.519,0.592-3.3,2.314-3.188,4.125c-0.15,0.575-0.26,1.221-0.321,1.949c-0.001,0.001-0.002,0.003-0.003,0.005    c-1.857,4.138,2.04,7.829-1.344,8.66c0.86,1.56,2.989,2.729,5.517,3.195c-0.279,0.587-0.79,1-1.647,1.291    c0.012-0.035,0.021-0.071,0.031-0.108c-1.293,0.701-4.671,0.933-6.428,1.639c-1.912,1.321-2.023,6.535-2.579,8.145h10.852V23.12z"/>
		<path clip-path="url(#SVGID_6_)" fill="#73C4CE" d="M69.396,84.334c1.868-0.75,5.457-0.998,6.832-1.74    c-0.013,0.038-0.021,0.075-0.033,0.114c0.91-0.311,1.452-0.748,1.75-1.373c-2.687-0.495-4.947-1.737-5.86-3.396    c3.593-0.882-0.547-4.803,1.425-9.199c0.001-0.002,0.002-0.005,0.004-0.008c0.066-0.771,0.183-1.459,0.342-2.068    c-0.12-1.925,0.71-3.755,3.389-4.384c2.319-2.865,11.327-1.281,10.706,4.51c0.003,0.013,0.006,0.025,0.009,0.039    c0.041,0.159,0.077,0.317,0.11,0.477c0.007,0.028,0.012,0.057,0.017,0.084c0.028,0.133,0.053,0.268,0.077,0.401    c0.006,0.041,0.014,0.081,0.021,0.122c0.025,0.153,0.05,0.309,0.07,0.462c0.001,0.002,0.001,0.005,0.001,0.007    c0.021,0.158,0.04,0.313,0.057,0.468c0.004,0.04,0.008,0.08,0.013,0.12c0.028,0.055,0.061,0.11,0.091,0.164    c1.817,3.502-2.56,8.273,0.943,8.774c-1.534,1.769-3.588,2.826-5.752,3.322c0.331,0.734,1.007,1.174,1.744,1.465    c-0.011-0.034-0.019-0.067-0.031-0.102c1.364,0.74,5.958,1.078,7.724,2.224c1.43,1.601,1.588,6.454,2.14,8.17H66.657    C67.248,91.277,67.367,85.738,69.396,84.334"/>
		<path clip-path="url(#SVGID_6_)" fill="#73C4CE" d="M-6.966,38.945c0.864,1.568,3.003,2.742,5.543,3.21    c-0.281,0.591-0.794,1.006-1.655,1.298c0.011-0.036,0.019-0.071,0.031-0.108c-0.844,0.457-2.57,0.716-4.161,1.035v8.795h22.086    c-0.522-1.622-0.67-6.213-2.023-7.726c-1.67-1.084-6.014-1.403-7.304-2.104c0.011,0.033,0.019,0.064,0.029,0.097    c-0.697-0.276-1.336-0.691-1.65-1.385c2.047-0.469,3.989-1.469,5.44-3.143c-3.313-0.473,0.826-4.985-0.893-8.297    c-0.027-0.051-0.057-0.103-0.086-0.155c-0.003-0.038-0.006-0.076-0.011-0.114c-0.015-0.146-0.033-0.293-0.053-0.442    c0-0.003,0-0.005-0.001-0.007c-0.02-0.145-0.042-0.29-0.066-0.437c-0.007-0.038-0.014-0.077-0.021-0.116    c-0.021-0.126-0.046-0.252-0.071-0.379c-0.006-0.026-0.011-0.052-0.017-0.079c-0.031-0.15-0.066-0.301-0.104-0.451    c-0.003-0.012-0.006-0.025-0.009-0.037c0.588-5.476-7.931-6.974-10.125-4.265c-2.531,0.595-3.317,2.326-3.203,4.145    c-0.152,0.579-0.261,1.227-0.324,1.958l-0.003,0.006C-7.483,34.402-3.567,38.11-6.966,38.945"/>
		<path clip-path="url(#SVGID_6_)" fill="#73C4CE" d="M46.907,4.483c0.012,0.034,0.02,0.067,0.03,0.101    c-0.727-0.288-1.395-0.722-1.721-1.447c2.136-0.489,4.165-1.534,5.681-3.283c-3.184-0.455,0.219-4.482-0.616-7.817H34.833    c-0.824,3.822,2.206,7.061-1.003,7.849c0.903,1.638,3.138,2.865,5.791,3.354c-0.294,0.617-0.829,1.051-1.729,1.356    c0.011-0.037,0.02-0.074,0.033-0.113c-1.358,0.735-4.905,0.979-6.749,1.72c-2.005,1.387-2.123,6.86-2.707,8.549H56.65    c-0.545-1.694-0.7-6.49-2.113-8.071C52.793,5.548,48.254,5.215,46.907,4.483"/>
		<path clip-path="url(#SVGID_6_)" fill="#73C4CE" d="M57.2,53.726c-0.119-2.271-0.4-4.489-1.789-8.026    c-0.616-1.563-6.621-3.164-8.69-3.667c-0.001,0-0.003,0-0.004-0.001c-0.134-0.032-0.251-0.06-0.348-0.082    c-0.004-0.001-0.007-0.002-0.011-0.003c-0.026-0.006-0.052-0.013-0.076-0.018c-0.006-0.001-0.012-0.002-0.018-0.004    c-0.019-0.005-0.038-0.009-0.055-0.012c-0.006-0.002-0.015-0.003-0.022-0.005c-0.009-0.002-0.018-0.004-0.027-0.007    c-0.09-0.142-0.192-0.271-0.308-0.387c-0.052-1.106-0.115-2.086-0.184-2.609c0.377-0.425,0.709-0.87,0.909-1.29    c0.227-0.475,0.316-1.257,0.351-2.166c0.061,0.029,0.135,0.048,0.226,0.047c0.462-0.004,0.43-1.516,0.81-2.805    c0.203-0.687-0.01-1.191-0.488-1.319c-0.059-0.016-0.186-0.013-0.308,0.036c-0.005-0.008-0.011-0.015-0.018-0.021    c-0.01-0.01-0.02-0.018-0.032-0.025c0.252-0.739,0.559-2.087,0.55-3.107c-0.021-2.393-1.122-4.326-2.342-4.881    c0.002,0.18-0.175,0.51-0.238,0.51c0,0-0.345-0.959-1.117-1.335c0.003,0.299-0.11,0.589-0.269,0.832    c-0.306-1.553-1.139-1.847-1.388-1.844c0.133,0.718-0.255,1.46-0.881,1.605c-0.033,0.007-0.067,0.014-0.1,0.018    c-0.038,0.005-0.075,0.009-0.112,0.009c0.302-0.787,0.024-1.349-0.067-1.221c-0.382,0.533-0.772,0.88-0.948,0.898    c-0.042,0.004-0.11-0.612-0.141-0.695c-1.362,1.345-2.49,1.125-3.436,2.19c-1.557,1.75-1.511,3.617-1.295,4.983    c0.088,0.558,0.378,1.634,0.598,2.236c-0.147-0.101-0.338-0.107-0.417-0.085c-0.474,0.136-0.677,0.644-0.463,1.327    c0.402,1.282,0.395,2.795,0.857,2.791c0.092-0.001,0.164-0.02,0.226-0.051c0.049,0.908,0.153,1.688,0.387,2.159    c0.209,0.417,0.548,0.856,0.932,1.275c-0.002,0.015-0.004,0.031-0.006,0.047v0.002c-0.057,0.537-0.102,1.498-0.134,2.577    c-0.002-0.019-0.005-0.039-0.007-0.058c-0.157,0.153-0.289,0.332-0.397,0.53c-0.017,0.006-0.033,0.012-0.05,0.018    c0.008-0.066,0.016-0.131,0.025-0.197c-0.001,0-0.003,0-0.005,0.001v-0.001c-0.033,0.007-0.074,0.017-0.12,0.027    c0.001-0.009,0.002-0.018,0.003-0.027c-0.99,0.219-8.584,2.037-9.282,3.805c-1.388,3.537-1.643,5.755-1.734,8.026H57.2z"/>
		<path clip-path="url(#SVGID_6_)" fill="#73C4CE" d="M56.745,92.729c-1.286-6.368,0.132-7.815-2.184-13.714    c-0.507-1.288-5.454-2.607-7.159-3.021c-0.001-0.001-0.003-0.001-0.004-0.001c-0.11-0.026-0.206-0.05-0.287-0.068    c-0.003,0-0.005-0.001-0.008-0.002c-0.022-0.006-0.044-0.011-0.063-0.015l-0.015-0.003c-0.015-0.005-0.03-0.008-0.045-0.011    c-0.006-0.001-0.012-0.002-0.017-0.004c-0.009-0.002-0.016-0.003-0.024-0.005c-0.074-0.117-0.158-0.225-0.254-0.32    c-0.043-0.91-0.093-1.718-0.151-2.148c0.311-0.351,0.584-0.718,0.749-1.063c0.188-0.391,0.261-1.035,0.289-1.785    c0.051,0.025,0.111,0.04,0.187,0.039c0.381-0.003,0.353-1.249,0.668-2.311c0.166-0.566-0.009-0.981-0.403-1.088    c-0.049-0.012-0.154-0.01-0.254,0.03c-0.004-0.006-0.008-0.011-0.014-0.017c-0.009-0.008-0.018-0.016-0.027-0.021    c0.207-0.607,0.46-1.719,0.453-2.559c-0.017-1.973-0.924-3.565-1.929-4.022c0.002,0.148-0.145,0.42-0.196,0.421    c0,0-0.285-0.791-0.92-1.101c0.003,0.247-0.091,0.485-0.223,0.686c-0.251-1.279-0.938-1.521-1.143-1.52    c0.11,0.592-0.21,1.204-0.726,1.323c-0.027,0.006-0.055,0.011-0.082,0.015c-0.031,0.004-0.062,0.007-0.093,0.007    c0.25-0.647,0.021-1.11-0.055-1.006c-0.314,0.439-0.635,0.725-0.781,0.74c-0.034,0.003-0.09-0.504-0.115-0.572    c-1.123,1.107-2.053,0.926-2.832,1.804c-1.282,1.442-1.244,2.98-1.068,4.105c0.074,0.46,0.313,1.347,0.495,1.843    c-0.122-0.083-0.28-0.089-0.344-0.071c-0.391,0.112-0.559,0.531-0.383,1.095c0.332,1.056,0.326,2.302,0.707,2.299    c0.075,0,0.135-0.018,0.186-0.042c0.041,0.749,0.127,1.392,0.32,1.779c0.171,0.344,0.45,0.705,0.766,1.05    c0,0.013-0.002,0.025-0.003,0.04v0.001c-0.048,0.441-0.084,1.234-0.111,2.123c-0.002-0.017-0.005-0.032-0.006-0.048    c-0.13,0.126-0.238,0.273-0.328,0.437c-0.012,0.005-0.027,0.01-0.041,0.015c0.007-0.054,0.013-0.107,0.021-0.162    c-0.001,0-0.003,0.001-0.004,0.001v-0.001c-0.027,0.006-0.061,0.014-0.1,0.022c0.001-0.008,0.002-0.015,0.003-0.022    c-0.815,0.181-7.072,1.679-7.647,3.136c-2.315,5.898-0.806,7.346-2.092,13.714c-0.008,0.038-0.015,0.074-0.022,0.112h0.001h0.036    h11.012h2.628h0.051h2.719h10.856h0.027C56.76,92.803,56.752,92.767,56.745,92.729"/>
		<path clip-path="url(#SVGID_6_)" fill="#73C4CE" d="M56.486,92.729c-1.287-6.368,0.132-7.815-2.184-13.714    c-0.507-1.288-5.455-2.607-7.16-3.021c-0.001-0.001-0.002-0.001-0.004-0.001c-0.109-0.026-0.206-0.05-0.286-0.068    c-0.003,0-0.006-0.001-0.009-0.002c-0.022-0.006-0.043-0.011-0.063-0.015c-0.005-0.001-0.01-0.002-0.014-0.003    c-0.016-0.005-0.031-0.008-0.046-0.011c-0.005-0.001-0.011-0.002-0.017-0.004c-0.008-0.002-0.016-0.003-0.024-0.005    c-0.073-0.117-0.158-0.225-0.253-0.32c-0.043-0.91-0.094-1.718-0.151-2.148c0.311-0.351,0.583-0.718,0.749-1.063    c0.187-0.391,0.26-1.035,0.289-1.785c0.051,0.025,0.111,0.04,0.187,0.039c0.381-0.003,0.353-1.249,0.667-2.311    c0.167-0.566-0.009-0.981-0.403-1.088c-0.049-0.012-0.153-0.01-0.254,0.03c-0.004-0.006-0.008-0.011-0.014-0.017    c-0.008-0.008-0.018-0.016-0.027-0.021c0.208-0.607,0.461-1.719,0.454-2.559c-0.018-1.973-0.925-3.565-1.93-4.022    c0.002,0.148-0.145,0.42-0.196,0.421c0,0-0.285-0.791-0.92-1.101c0.003,0.247-0.091,0.485-0.222,0.686    c-0.252-1.279-0.938-1.521-1.143-1.52c0.109,0.592-0.211,1.204-0.726,1.323c-0.028,0.006-0.055,0.011-0.083,0.015    c-0.031,0.004-0.062,0.007-0.093,0.007c0.25-0.647,0.021-1.11-0.055-1.006c-0.314,0.439-0.635,0.725-0.781,0.74    c-0.034,0.003-0.09-0.504-0.115-0.572c-1.123,1.107-2.053,0.926-2.832,1.804c-1.282,1.442-1.244,2.98-1.067,4.105    c0.073,0.46,0.312,1.347,0.494,1.843c-0.122-0.083-0.28-0.089-0.344-0.071c-0.391,0.112-0.559,0.531-0.382,1.095    c0.331,1.056,0.326,2.302,0.706,2.299c0.075,0,0.136-0.018,0.187-0.042c0.041,0.749,0.126,1.392,0.319,1.779    c0.172,0.344,0.451,0.705,0.767,1.05c-0.001,0.013-0.003,0.025-0.004,0.04v0.001c-0.047,0.441-0.084,1.234-0.111,2.123    c-0.002-0.017-0.004-0.032-0.006-0.048c-0.129,0.126-0.237,0.273-0.327,0.437c-0.013,0.005-0.028,0.01-0.042,0.015    c0.007-0.054,0.014-0.107,0.021-0.162c-0.001,0-0.002,0.001-0.003,0.001v-0.001c-0.028,0.006-0.062,0.014-0.1,0.022    c0.001-0.008,0.002-0.015,0.002-0.022c-0.815,0.181-7.071,1.679-7.646,3.136c-2.316,5.898-0.806,7.346-2.093,13.714    c-0.007,0.038-0.014,0.074-0.022,0.112h0.001h0.037h11.011h2.629h0.051h2.718h10.857h0.027    C56.5,92.803,56.493,92.767,56.486,92.729"/>
		<path clip-path="url(#SVGID_6_)" fill="#73C4CE" d="M-4.307,113.675c0.09-0.001,0.162-0.021,0.223-0.051    c0.048,0.896,0.15,1.666,0.381,2.131c0.207,0.411,0.542,0.844,0.919,1.257c-0.002,0.016-0.002,0.031-0.004,0.047v0.001    c-0.057,0.531-0.101,1.479-0.133,2.543c-0.002-0.019-0.005-0.038-0.007-0.058c-0.076,0.074-0.147,0.155-0.211,0.242h8.865    c-0.069-0.097-0.142-0.189-0.224-0.271c-0.052-1.091-0.114-2.058-0.182-2.573c0.372-0.42,0.699-0.858,0.897-1.273    c0.224-0.469,0.312-1.239,0.346-2.138c0.061,0.031,0.133,0.049,0.224,0.049c0.456-0.006,0.423-1.496,0.799-2.769    c0.199-0.678-0.011-1.175-0.482-1.301c-0.059-0.017-0.184-0.013-0.305,0.035c-0.004-0.007-0.01-0.015-0.016-0.021    c-0.011-0.01-0.022-0.018-0.032-0.023c0.249-0.73,0.55-2.06,0.542-3.066c-0.021-2.361-1.108-4.267-2.31-4.814    c0.002,0.177-0.173,0.503-0.235,0.504c0,0-0.34-0.947-1.101-1.318c0.002,0.295-0.109,0.581-0.267,0.822    c-0.301-1.534-1.123-1.823-1.368-1.821c0.131,0.709-0.252,1.442-0.87,1.584c-0.032,0.008-0.065,0.013-0.099,0.018    c-0.037,0.006-0.074,0.01-0.111,0.01c0.3-0.777,0.026-1.33-0.065-1.204c-0.377,0.524-0.762,0.867-0.936,0.885    c-0.041,0.004-0.107-0.604-0.138-0.686c-1.344,1.326-2.457,1.11-3.39,2.16c-1.535,1.727-1.49,3.569-1.278,4.915    c0.087,0.552,0.374,1.613,0.591,2.206c-0.145-0.099-0.335-0.104-0.412-0.083c-0.467,0.135-0.669,0.636-0.458,1.31    C-4.756,112.187-4.763,113.679-4.307,113.675"/>
		<path clip-path="url(#SVGID_6_)" fill="#73C4CE" d="M115.88,117.061c-0.057,0.53-0.102,1.479-0.133,2.542    c-0.002-0.02-0.005-0.038-0.007-0.059c-0.076,0.075-0.146,0.156-0.211,0.243h1.753v-18.506c-0.834,0.445-1.566,0.567-2.212,1.293    c-1.535,1.728-1.489,3.569-1.277,4.916c0.087,0.55,0.373,1.612,0.591,2.206c-0.145-0.099-0.334-0.105-0.41-0.084    c-0.469,0.134-0.67,0.635-0.458,1.31c0.396,1.265,0.39,2.757,0.845,2.753c0.091-0.001,0.163-0.02,0.223-0.052    c0.05,0.897,0.151,1.666,0.383,2.132c0.206,0.41,0.54,0.844,0.919,1.257c-0.002,0.016-0.004,0.03-0.005,0.047V117.061z"/>
		<path clip-path="url(#SVGID_6_)" fill="#73C4CE" d="M85.728,1.53c-0.001-0.001-0.002-0.001-0.005-0.001    c-0.131-0.032-0.246-0.06-0.343-0.082c-0.003-0.001-0.006-0.002-0.009-0.002c-0.027-0.007-0.052-0.013-0.077-0.018    c-0.004-0.001-0.01-0.002-0.016-0.004c-0.021-0.005-0.037-0.009-0.056-0.013c-0.007-0.001-0.015-0.003-0.02-0.004    c-0.012-0.002-0.021-0.004-0.029-0.006c-0.088-0.141-0.188-0.269-0.303-0.383c-0.051-1.091-0.114-2.058-0.182-2.573    c0.371-0.42,0.699-0.858,0.896-1.273c0.224-0.469,0.312-1.24,0.347-2.138c0.061,0.031,0.133,0.048,0.224,0.047    c0.456-0.004,0.423-1.495,0.799-2.767c0.027-0.096,0.046-0.187,0.058-0.276H74.141c0.012,0.121,0.032,0.249,0.075,0.386    c0.398,1.265,0.391,2.757,0.846,2.753c0.092-0.001,0.162-0.02,0.224-0.051c0.049,0.897,0.15,1.666,0.382,2.131    c0.206,0.411,0.54,0.844,0.919,1.257c-0.002,0.016-0.004,0.032-0.004,0.047v0.001c-0.058,0.531-0.103,1.479-0.133,2.543    c-0.002-0.019-0.005-0.038-0.008-0.058c-0.154,0.151-0.284,0.328-0.393,0.524C76.034,1.575,76.017,1.581,76,1.587    c0.008-0.065,0.016-0.13,0.024-0.195c-0.001,0-0.003,0.001-0.005,0.001V1.393c-0.031,0.007-0.071,0.016-0.117,0.027    c0-0.009,0.002-0.018,0.003-0.027c-0.978,0.216-8.469,2.01-9.157,3.754c-1.498,3.815-1.659,6.075-1.733,8.549h31.08    c-0.103-2.474-0.297-4.734-1.794-8.549C93.693,3.604,87.77,2.024,85.728,1.53"/>
		<path clip-path="url(#SVGID_6_)" fill="#9BD9E1" d="M117.282,92.118h-15.529V55.917h15.529V52.82h-15.529V16.618h15.529v-3.096    h-15.529V-7.963h-3.097v21.485h-36.2V-7.963h-3.098v21.485H23.157V-7.963h-3.096v21.485H-7.208v3.096h27.269V52.82H-7.208v3.096    h27.269v36.202H-7.208v3.095h27.269v24.574h3.096V95.213h36.202v24.574h3.098V95.213h36.2v24.574h3.097V95.213h15.529V92.118z     M59.358,92.118H23.157V55.917h36.202V92.118z M59.358,52.82H23.157V16.618h36.202V52.82z M98.656,92.118h-36.2V55.917h36.2    V92.118z M98.656,52.82h-36.2V16.618h36.2V52.82z"/>
		<path clip-path="url(#SVGID_6_)" fill="#73C4CE" d="M60.391,15.586H22.125v38.266h38.266V15.586z M59.358,52.82H23.157V16.618    h36.202V52.82z"/>
		<path clip-path="url(#SVGID_6_)" fill="#73C4CE" d="M99.688,15.586H61.423v38.266h38.266V15.586z M98.656,52.82H62.455V16.618    h36.201V52.82z"/>
		<polygon clip-path="url(#SVGID_6_)" fill="#73C4CE" points="99.688,14.555 99.688,-7.963 98.657,-7.963 98.657,13.522    62.455,13.522 62.455,-7.963 61.423,-7.963 61.423,14.555   "/>
		<polygon clip-path="url(#SVGID_6_)" fill="#73C4CE" points="60.391,14.555 60.391,-7.963 59.359,-7.963 59.359,13.522    23.157,13.522 23.157,-7.963 22.125,-7.963 22.125,14.555   "/>
		<path clip-path="url(#SVGID_6_)" fill="#73C4CE" d="M99.688,54.884H61.423V93.15h38.266V54.884z M98.656,92.118H62.455V55.917    h36.201V92.118z"/>
		<polygon clip-path="url(#SVGID_6_)" fill="#73C4CE" points="-7.208,94.182 -7.208,95.214 20.061,95.214 20.061,119.787    21.093,119.787 21.093,94.182   "/>
		<polygon clip-path="url(#SVGID_6_)" fill="#73C4CE" points="22.125,94.182 22.125,119.787 23.156,119.787 23.156,95.214    59.358,95.214 59.358,119.787 60.392,119.787 60.392,94.182   "/>
		<polygon clip-path="url(#SVGID_6_)" fill="#73C4CE" points="61.423,94.182 61.423,119.787 62.454,119.787 62.454,95.214    98.656,95.214 98.656,119.787 99.689,119.787 99.689,94.182   "/>
		<polygon clip-path="url(#SVGID_6_)" fill="#73C4CE" points="117.282,16.618 117.282,13.522 101.754,13.522 101.754,-7.963    100.721,-7.963 100.721,14.555 117.282,14.555 117.282,15.586 100.721,15.586 100.721,53.852 117.282,53.852 117.282,54.884    100.721,54.884 100.721,93.15 117.282,93.15 117.282,94.182 100.721,94.182 100.721,119.787 101.754,119.787 101.754,95.214    117.282,95.214 117.282,92.118 101.754,92.118 101.754,55.916 117.282,55.916 117.282,52.82 101.754,52.82 101.754,16.618   "/>
		<polygon clip-path="url(#SVGID_6_)" fill="#73C4CE" points="21.093,-7.963 20.061,-7.963 20.061,13.522 -7.209,13.522    -7.209,14.555 21.093,14.555   "/>
		<path clip-path="url(#SVGID_6_)" fill="#73C4CE" d="M60.391,54.884H22.125V93.15h38.266V54.884z M59.358,92.118H23.157V55.917    h36.202V92.118z"/>
		<polygon clip-path="url(#SVGID_6_)" fill="#73C4CE" points="21.093,54.884 -7.209,54.884 -7.209,55.916 20.061,55.916    20.061,92.118 -7.209,92.118 -7.209,93.15 21.093,93.15   "/>
		<polygon clip-path="url(#SVGID_6_)" fill="#73C4CE" points="21.093,15.586 -7.209,15.586 -7.209,16.618 20.061,16.618    20.061,52.82 -7.209,52.82 -7.209,53.853 21.093,53.853   "/>
		<path clip-path="url(#SVGID_6_)" fill="#FBB678" d="M64.936,79.358c1.367,1.747,2.829,5.675,4.145,7.479    c0.644,0.884,9.622,9.673,10.344,10.48c1.685,1.878,8.777,0.707,11.866-2.063c0.199-0.177,7.457-18.035,3.658-22.272    c-5.069-5.654-19.212-3.406-23.945,0.836C69.785,74.91,63.898,78.032,64.936,79.358"/>
	</g>
	<g clip-path="url(#SVGID_2_)">
		<defs>
			<circle id="SVGID_7_" cx="58.001" cy="58" r="57.487"/>
		</defs>
		<clipPath id="SVGID_8_">
			<use xlink:href="#SVGID_7_" overflow="visible"/>
		</clipPath>
		<g opacity="0.3" clip-path="url(#SVGID_8_)">
			<g>
				<defs>
					<rect id="SVGID_9_" x="64.813" y="69.601" width="31.37" height="28.667"/>
				</defs>
				<clipPath id="SVGID_10_">
					<use xlink:href="#SVGID_9_" overflow="visible"/>
				</clipPath>
				<path clip-path="url(#SVGID_10_)" fill="#FBB678" d="M92.681,94.034c1.212-3.329,5.624-17.31,2.268-21.052      c-5.069-5.656-19.213-3.407-23.947,0.835c-1.216,1.093-7.102,4.216-6.065,5.54c1.368,1.746,2.83,5.675,4.145,7.481      c0.644,0.882,9.949,9.864,10.673,10.671c1.273,1.421,6.085,0.694,9.692-0.94L92.681,94.034z"/>
			</g>
		</g>
		<path clip-path="url(#SVGID_8_)" fill="#05585E" d="M89.374,83.48l-10.399-11.6l-4.97-5.549l-4.795-5.347    c8.353-10.412,8.203-25.676-0.994-35.935c-10.229-11.413-27.839-12.374-39.251-2.143c-11.413,10.23-12.374,27.838-2.143,39.25    c9.276,10.349,24.621,12.104,35.91,4.713l32.258,36.475c0.144-0.105,0.29-0.209,0.434-0.313c1.088-0.793,2.146-1.638,3.178-2.541    c0.13-0.114,0.265-0.23,0.396-0.351c0.669-0.6,1.315-1.213,1.943-1.843c0.222-0.222,0.439-0.445,0.654-0.671L89.374,83.48z     M30.435,58.918c-8.458-9.436-7.666-23.939,1.77-32.397c9.435-8.458,23.94-7.665,32.397,1.769    c8.458,9.436,7.665,23.941-1.77,32.399C53.398,69.146,38.893,68.354,30.435,58.918"/>
		<g opacity="0.5" clip-path="url(#SVGID_8_)">
			<g>
				<defs>
					<rect id="SVGID_11_" x="19.735" y="22.907" width="78.866" height="80.437"/>
				</defs>
				<clipPath id="SVGID_12_">
					<use xlink:href="#SVGID_11_" overflow="visible"/>
				</clipPath>
				<path clip-path="url(#SVGID_12_)" fill="#05585E" d="M62.833,60.688c-9.243,8.668-23.94,7.665-32.398-1.771      s-7.666-23.939,1.769-32.397l-3.239-3.613c-11.413,10.23-12.374,27.838-2.144,39.25c9.277,10.349,24.621,12.104,35.91,4.713      l32.257,36.475c0.145-0.105,0.29-0.209,0.435-0.313c1.089-0.793,2.347-1.45,3.179-2.541L62.833,60.688z"/>
			</g>
		</g>
		<g opacity="0.7" clip-path="url(#SVGID_8_)">
			<g>
				<defs>
					<rect id="SVGID_13_" x="27.157" y="28.149" width="17.544" height="35.032"/>
				</defs>
				<clipPath id="SVGID_14_">
					<use xlink:href="#SVGID_13_" overflow="visible"/>
				</clipPath>
				<path clip-path="url(#SVGID_14_)" fill="#A7D7E8" d="M31.258,45.929c-1.034-6.242-0.133-13.567,4.196-17.78      c-6.021,3.242-9.077,11.129-8.127,18.356c1.057,8.039,7.832,15.355,17.374,16.676C37.737,61.593,32.518,53.534,31.258,45.929"/>
			</g>
		</g>
		<path clip-path="url(#SVGID_8_)" fill="#FCC188" d="M80.236,78.33c3.565,0.134,3.276,4.309-0.22,4.355L67.79,83.274    c-1.849,0.007-3.344-0.695-3.479-2.882c-0.134-2.161,0.289-3.064,3.372-3.341L80.236,78.33z"/>
		<path clip-path="url(#SVGID_8_)" fill="#FCC188" d="M83.272,82.959c3.503-0.365,3.804,3.754,0.394,4.287l-11.867,2.277    c-1.803,0.265-3.363-0.213-3.799-2.331c-0.433-2.092-0.146-3.034,2.829-3.733L83.272,82.959z"/>
		<path clip-path="url(#SVGID_8_)" fill="#FCC188" d="M87.738,87.033c3.406-0.75,4.159,3.271,0.864,4.176l-11.422,3.563    c-1.746,0.461-3.334,0.164-3.999-1.87c-0.658-2.012-0.48-2.97,2.368-3.99L87.738,87.033z"/>
		<path clip-path="url(#SVGID_8_)" fill="#FCC188" d="M90.404,90.709c2.742-1.091,3.922,2.164,1.292,3.369l-9.053,4.538    c-1.395,0.623-2.761,0.593-3.595-1.016c-0.826-1.591-0.809-2.415,1.432-3.655L90.404,90.709z"/>
		<path clip-path="url(#SVGID_8_)" fill="#FCC188" d="M106.662,72.119c-0.137,0.58-0.283,1.157-0.439,1.729    c-0.065,0.231-0.13,0.465-0.2,0.695c-0.568,1.63-1.233,3.229-1.994,4.795c0,0.004-0.003,0.007-0.004,0.01    c-0.1,0.206,1.531,0.61,1.425,0.813c-1.558,3.086,1.895,1.989-0.395,4.714c-0.487,0.578,0.52,4.557,0,5.114    c-0.355,0.383-6.458,2.556-9.701,1.563c-0.791-0.313-1.563-0.848-2.291-1.656c-1.384-1.546-2.741-3.819-3.688-6.416    c-0.964-2.641-1.504-5.619-1.214-8.506c0,0-4.871-1.748-7.113-3.584c-0.702,0.184-1.397,0.351-2.071,0.491    c-2.746,0.576-5.155,0.762-6.646,0.364c-4.251-1.127-4.671-4.396-3.061-4.752c1.573-0.349,3.181-0.753,4.735-1.161    c2.554-0.667,4.956-1.344,6.806-1.799c5.896-1.454,3.895-0.583,14.721,3.373c1.394,0.509,2.887,1.637,4.406,3.074    C101.851,70.986,104.599,71.736,106.662,72.119"/>
		<g opacity="0.5" clip-path="url(#SVGID_8_)">
			<g>
				<defs>
					<rect id="SVGID_15_" x="68.897" y="66.526" width="6.08" height="3.294"/>
				</defs>
				<clipPath id="SVGID_16_">
					<use xlink:href="#SVGID_15_" overflow="visible"/>
				</clipPath>
				<path clip-path="url(#SVGID_16_)" fill="#FCC188" d="M68.985,68.055c-0.028,0.037-0.061,0.071-0.088,0.109      c0.118,0.349,0.285,0.635,0.491,0.864c1.405,1.566,4.5,0.439,5.252-0.235c0.524-0.469,0.365-1.799,0.013-2.189      c-0.021-0.026-0.07-0.052-0.143-0.077c-1.627,0.419-3.312,0.86-4.939,1.305C69.359,67.888,69.164,67.965,68.985,68.055"/>
			</g>
		</g>
		<path clip-path="url(#SVGID_8_)" fill="#FCC188" d="M68.683,67.719c-0.027,0.037-0.06,0.071-0.087,0.11    c0.118,0.348,0.285,0.633,0.491,0.861c1.405,1.567,4.499,0.441,5.252-0.233c0.524-0.47,0.365-1.8,0.013-2.191    c-0.022-0.025-0.07-0.051-0.143-0.075c-1.627,0.418-3.311,0.86-4.939,1.303C69.058,67.552,68.862,67.628,68.683,67.719"/>
		<g opacity="0.3" clip-path="url(#SVGID_8_)">
			<g>
				<defs>
					<rect id="SVGID_17_" x="68.596" y="66.19" width="6.08" height="3.293"/>
				</defs>
				<clipPath id="SVGID_18_">
					<use xlink:href="#SVGID_17_" overflow="visible"/>
				</clipPath>
				<path clip-path="url(#SVGID_18_)" fill="#FCC188" d="M68.683,67.719c-0.027,0.037-0.06,0.071-0.087,0.11      c0.118,0.348,0.285,0.633,0.491,0.861c1.405,1.567,4.499,0.441,5.252-0.233c0.524-0.47,0.365-1.8,0.013-2.191      c-0.022-0.025-0.07-0.051-0.143-0.075c-1.627,0.418-3.311,0.86-4.939,1.303C69.058,67.552,68.862,67.628,68.683,67.719"/>
			</g>
		</g>
		<g opacity="0.5" clip-path="url(#SVGID_8_)">
			<g>
				<defs>
					<rect id="SVGID_19_" x="78.245" y="78.712" width="3.708" height="2.949"/>
				</defs>
				<clipPath id="SVGID_20_">
					<use xlink:href="#SVGID_19_" overflow="visible"/>
				</clipPath>
				<path clip-path="url(#SVGID_20_)" fill="#FCC188" d="M78.797,81.661c-0.594,0.041-0.834-2.839-0.078-2.898      c2.612-0.204,3.3,0.186,3.229,1.454C81.886,81.37,81.464,81.481,78.797,81.661"/>
			</g>
		</g>
		<path clip-path="url(#SVGID_8_)" fill="#FCC188" d="M79.099,81.997c-0.594,0.041-0.834-2.838-0.078-2.896    c2.612-0.205,3.3,0.184,3.229,1.453C82.188,81.706,81.767,81.817,79.099,81.997"/>
		<g opacity="0.4" clip-path="url(#SVGID_8_)">
			<g>
				<defs>
					<rect id="SVGID_21_" x="78.547" y="79.049" width="3.708" height="2.949"/>
				</defs>
				<clipPath id="SVGID_22_">
					<use xlink:href="#SVGID_21_" overflow="visible"/>
				</clipPath>
				<path clip-path="url(#SVGID_22_)" fill="#FCC188" d="M79.099,81.997c-0.594,0.041-0.834-2.838-0.078-2.896      c2.612-0.205,3.3,0.184,3.229,1.453C82.188,81.706,81.767,81.817,79.099,81.997"/>
			</g>
		</g>
		<g opacity="0.5" clip-path="url(#SVGID_8_)">
			<g>
				<defs>
					<rect id="SVGID_23_" x="81.2" y="83.28" width="3.883" height="3.19"/>
				</defs>
				<clipPath id="SVGID_24_">
					<use xlink:href="#SVGID_23_" overflow="visible"/>
				</clipPath>
				<path clip-path="url(#SVGID_24_)" fill="#FCC188" d="M82.1,86.469c-0.966,0.08-1.256-2.84-0.365-2.983      c2.564-0.415,3.151-0.272,3.328,1.125C85.203,85.712,84.664,86.257,82.1,86.469"/>
			</g>
		</g>
		<path clip-path="url(#SVGID_8_)" fill="#FCC188" d="M82.326,86.722c-0.966,0.08-1.256-2.841-0.364-2.984    c2.563-0.415,3.15-0.271,3.327,1.126C85.43,85.964,84.89,86.509,82.326,86.722"/>
		<g opacity="0.4" clip-path="url(#SVGID_8_)">
			<g>
				<defs>
					<rect id="SVGID_25_" x="81.426" y="83.533" width="3.884" height="3.19"/>
				</defs>
				<clipPath id="SVGID_26_">
					<use xlink:href="#SVGID_25_" overflow="visible"/>
				</clipPath>
				<path clip-path="url(#SVGID_26_)" fill="#FCC188" d="M82.326,86.722c-0.966,0.08-1.256-2.841-0.364-2.984      c2.563-0.415,3.15-0.271,3.327,1.126C85.43,85.964,84.89,86.509,82.326,86.722"/>
			</g>
		</g>
		<g opacity="0.5" clip-path="url(#SVGID_8_)">
			<g>
				<defs>
					<rect id="SVGID_27_" x="85.964" y="87.463" width="3.7" height="3.145"/>
				</defs>
				<clipPath id="SVGID_28_">
					<use xlink:href="#SVGID_27_" overflow="visible"/>
				</clipPath>
				<path clip-path="url(#SVGID_28_)" fill="#FCC188" d="M86.85,90.602c-0.565,0.145-1.309-2.594-0.589-2.784      c2.486-0.66,3.218-0.406,3.377,0.83C89.782,89.772,89.395,89.955,86.85,90.602"/>
			</g>
		</g>
		<path clip-path="url(#SVGID_8_)" fill="#FCC188" d="M87.127,90.847c-0.565,0.145-1.31-2.593-0.59-2.784    c2.486-0.66,3.219-0.406,3.377,0.83C90.059,90.018,89.671,90.2,87.127,90.847"/>
		<g opacity="0.6" clip-path="url(#SVGID_8_)">
			<g>
				<defs>
					<rect id="SVGID_29_" x="86.24" y="87.708" width="3.7" height="3.145"/>
				</defs>
				<clipPath id="SVGID_30_">
					<use xlink:href="#SVGID_29_" overflow="visible"/>
				</clipPath>
				<path clip-path="url(#SVGID_30_)" fill="#FCC188" d="M87.127,90.847c-0.565,0.145-1.31-2.593-0.59-2.784      c2.486-0.66,3.219-0.406,3.377,0.83C90.059,90.018,89.671,90.2,87.127,90.847"/>
			</g>
		</g>
		<g opacity="0.5" clip-path="url(#SVGID_8_)">
			<g>
				<defs>
					<rect id="SVGID_31_" x="88.774" y="91.083" width="3.325" height="2.925"/>
				</defs>
				<clipPath id="SVGID_32_">
					<use xlink:href="#SVGID_31_" overflow="visible"/>
				</clipPath>
				<path clip-path="url(#SVGID_32_)" fill="#FCC188" d="M89.86,93.985c-0.515,0.252-1.521-1.728-0.878-2.074      c2.226-1.198,2.617-0.994,3.004-0.036C92.359,92.797,91.847,93.017,89.86,93.985"/>
			</g>
		</g>
		<path clip-path="url(#SVGID_8_)" fill="#FCC188" d="M90.143,94.063c-0.515,0.251-1.521-1.728-0.878-2.074    c2.226-1.199,2.617-0.995,3.004-0.036C92.641,92.874,92.129,93.094,90.143,94.063"/>
		<g opacity="0.6" clip-path="url(#SVGID_8_)">
			<g>
				<defs>
					<rect id="SVGID_33_" x="89.057" y="91.159" width="3.325" height="2.926"/>
				</defs>
				<clipPath id="SVGID_34_">
					<use xlink:href="#SVGID_33_" overflow="visible"/>
				</clipPath>
				<path clip-path="url(#SVGID_34_)" fill="#FCC188" d="M90.143,94.063c-0.515,0.251-1.521-1.728-0.878-2.074      c2.226-1.199,2.617-0.995,3.004-0.036C92.641,92.874,92.129,93.094,90.143,94.063"/>
			</g>
		</g>
		<rect x="101.595" y="69.034" clip-path="url(#SVGID_8_)" fill="#FFFFFF" width="5.068" height="24.119"/>
		<rect x="105.054" y="66.958" clip-path="url(#SVGID_8_)" fill="#05585E" width="13.639" height="28.47"/>
		<g opacity="0.5" clip-path="url(#SVGID_8_)">
			<g>
				<defs>
					<rect id="SVGID_35_" x="105.054" y="81.094" width="13.639" height="14.333"/>
				</defs>
				<clipPath id="SVGID_36_">
					<use xlink:href="#SVGID_35_" overflow="visible"/>
				</clipPath>
				<rect x="105.054" y="81.094" clip-path="url(#SVGID_36_)" fill="#05585E" width="13.639" height="14.333"/>
			</g>
		</g>
		<path clip-path="url(#SVGID_8_)" fill="#A7D7E8" d="M48.576,68.447c-13.481,0.128-24.552-10.735-24.68-24.216    s10.735-24.553,24.216-24.68c13.482-0.128,24.553,10.735,24.681,24.216C72.921,57.249,62.056,68.319,48.576,68.447"/>
		<path clip-path="url(#SVGID_8_)" fill="#58C6D0" d="M71.61,43.779c0.121,12.85-10.195,23.365-23.047,23.487    C35.715,67.388,25.2,57.07,25.078,44.22s10.195-23.366,23.046-23.487C60.973,20.611,71.488,30.929,71.61,43.779"/>
		<path clip-path="url(#SVGID_8_)" fill="#F3B27D" d="M53.455,50.637c-0.03-0.37-0.061-0.71-0.09-0.98    c-0.011-0.14-0.03-0.27-0.04-0.38c-0.02-0.12-0.03-0.22-0.05-0.29c-0.01-0.07-0.02-0.12-0.041-0.17    c-0.009-0.05-0.019-0.08-0.029-0.1c-0.01-0.03-0.03-0.04-0.04-0.04c-0.24,0.05-2.61,1.4-5.91,1.18l0.03,2.99    c-0.931,0.05-2.58-0.32-2.87-0.54c-0.62-0.5-2.07-1.64-3.24-2.92c-0.031,0.25-0.05,0.57-0.08,0.95c0,0.02-0.01,0.04,0,0.06    c-0.01,0.12-0.02,0.24-0.02,0.37c-0.141,2.49-0.2,6.81-0.181,9.13c2.721,0.329,4.411,0.6,6.46,0.59    c2.05-0.03,3.731-0.34,6.451-0.71C53.774,57.457,53.634,53.147,53.455,50.637"/>
		<g opacity="0.5" clip-path="url(#SVGID_8_)">
			<g>
				<defs>
					<rect id="SVGID_37_" x="41.064" y="50.397" width="0.03" height="0.37"/>
				</defs>
				<clipPath id="SVGID_38_">
					<use xlink:href="#SVGID_37_" overflow="visible"/>
				</clipPath>
				<path clip-path="url(#SVGID_38_)" fill="#FBB678" d="M41.064,50.757c0.011-0.12,0.011-0.24,0.03-0.36      c-0.009,0.12-0.019,0.24-0.019,0.37L41.064,50.757z"/>
			</g>
		</g>
		<g opacity="0.5" clip-path="url(#SVGID_8_)">
			<g>
				<defs>
					<rect id="SVGID_39_" x="41.094" y="49.387" width="0.08" height="0.95"/>
				</defs>
				<clipPath id="SVGID_40_">
					<use xlink:href="#SVGID_39_" overflow="visible"/>
				</clipPath>
				<path clip-path="url(#SVGID_40_)" fill="#FBB678" d="M41.094,50.337c0.021-0.38,0.05-0.7,0.08-0.95      C41.144,49.637,41.124,49.957,41.094,50.337"/>
			</g>
		</g>
		<path clip-path="url(#SVGID_8_)" fill="#F5BF8D" d="M55.995,38.127c-0.16-0.04-0.601-0.01-0.79,0.32    c-0.07-2.88-0.69-5.61-1.61-6.93c-0.781-1.11-2.81-1.93-4.6-1.92c-0.891,0.01-1.511,0-1.931,0.16h-0.009    c-0.43-0.15-1.05-0.13-1.93-0.12c-1.78,0.02-3.8,0.87-4.561,2c-0.899,1.34-1.469,4.08-1.469,6.96c-0.21-0.32-0.65-0.35-0.8-0.31    c-0.7,0.21-1,0.96-0.691,1.97c0.601,1.9,0.591,4.13,1.281,4.13c0.13,0,0.24-0.03,0.33-0.08c0.08,1.34,0.23,2.5,0.58,3.19    c0.309,0.61,0.809,1.26,1.38,1.88v0.01c1.17,1.28,2.62,2.42,3.24,2.92c0.29,0.22,1.939,0.59,2.87,0.54    c0.93,0.03,2.569-0.37,2.85-0.6c0.62-0.5,2.04-1.68,3.19-2.97c0.279-0.33,0.55-0.66,0.79-0.99c0.1-0.14,0.19-0.28,0.27-0.42    c0.11-0.17,0.2-0.34,0.28-0.51c0.34-0.7,0.47-1.86,0.519-3.2c0.091,0.04,0.201,0.07,0.331,0.07c0.69-0.01,0.639-2.24,1.2-4.15    C57.015,39.057,56.694,38.307,55.995,38.127"/>
		<path clip-path="url(#SVGID_8_)" fill="#936C45" d="M52.798,26.293c0.003,0.266-0.259,0.754-0.353,0.756    c0,0-0.511-1.419-1.652-1.974c0.004,0.442-0.163,0.87-0.398,1.231c-0.454-2.299-1.687-2.731-2.055-2.728    c0.219,1.18-0.51,2.407-1.617,2.418c0.448-1.166,0.035-1.996-0.1-1.807c-0.564,0.789-1.141,1.302-1.401,1.329    c-0.063,0.007-0.162-0.905-0.209-1.027c-2.015,1.99-3.684,1.667-5.082,3.244c-2.3,2.592-2.23,5.354-1.909,7.374    c0.194,1.227,1.05,4.148,1.249,3.94c1.161-10.399,2.692-8.825,7.799-8.381c5.679-0.535,6.796-0.643,7.957,8.232    c0.237,0.234,1.263-3.125,1.242-5.388C56.236,29.972,54.603,27.113,52.798,26.293"/>
		<g clip-path="url(#SVGID_8_)">
			<g>
				<defs>
					<rect id="SVGID_41_" x="37.858" y="24.163" width="9.225" height="14.897"/>
				</defs>
				<clipPath id="SVGID_42_">
					<use xlink:href="#SVGID_41_" overflow="visible"/>
				</clipPath>
				<path clip-path="url(#SVGID_42_)" fill="#936C45" d="M47.038,25.956c-0.101,0.023-0.205,0.04-0.314,0.041      c0.448-1.166,0.035-1.996-0.1-1.807c-0.565,0.789-1.142,1.302-1.401,1.329c-0.063,0.007-0.163-0.905-0.209-1.027      c-2.015,1.99-3.684,1.667-5.082,3.244c-2.3,2.592-2.23,5.354-1.91,7.374c0.195,1.227,1.051,4.148,1.249,3.94      c1.162-10.399,2.693-8.825,7.8-8.381c0.004,0,0.008-0.001,0.012-0.001L47.038,25.956z"/>
			</g>
		</g>
		<path clip-path="url(#SVGID_8_)" fill="#FFFFFF" d="M47.486,67.09c0.104,0.001,0.206,0,0.31-0.001    c6.151-0.06,12.983-2.939,17.544-8.481c-1.035-2.616-10.188-5.006-11.331-5.733c-0.574,1.047-1.664,6.998-6.588,7.309    c-4.929-0.219-6.131-6.147-6.726-7.183C39.565,53.75,30,56.239,29.475,58.946c4.665,5.455,11.552,8.206,17.702,8.148    C47.281,67.094,47.383,67.092,47.486,67.09"/>
		<g opacity="0.3" clip-path="url(#SVGID_8_)">
			<g>
				<defs>
					<rect id="SVGID_43_" x="29.475" y="53.001" width="18.104" height="14.095"/>
				</defs>
				<clipPath id="SVGID_44_">
					<use xlink:href="#SVGID_43_" overflow="visible"/>
				</clipPath>
				<path clip-path="url(#SVGID_44_)" fill="#A7D7E8" d="M47.514,60.175c-0.031,0.002-0.062,0.007-0.094,0.009      c-4.928-0.219-6.131-6.147-6.725-7.183c-1.129,0.749-10.696,3.238-11.22,5.946c4.665,5.455,11.552,8.207,17.702,8.148      c0.104-0.001,0.206-0.003,0.309-0.005c0.031,0,0.063,0,0.093,0L47.514,60.175z"/>
			</g>
		</g>
		<path clip-path="url(#SVGID_8_)" fill="#A7D7E8" d="M53.916,52.953c2.685,2.421,0.8,9.383,0.548,9.24    c-1.057-0.599-2.161-1.718-7.04-1.729c0.646-0.812,2.821-2.156,4.004-3.241C52.679,56.071,53.806,54.628,53.916,52.953"/>
		<path clip-path="url(#SVGID_8_)" fill="#A7D7E8" d="M40.79,53.077c-2.637,2.471-0.621,9.396-0.372,9.249    c1.045-0.619,2.128-1.759,7.006-1.862c-0.662-0.8-2.862-2.102-4.065-3.165C42.084,56.172,40.932,54.75,40.79,53.077"/>
		<path clip-path="url(#SVGID_8_)" fill="#FFFFFF" d="M53.554,52.247c2.54,2.422,0.761,9.384,0.522,9.241    c-1-0.599-2.044-1.719-6.66-1.731c0.612-0.813,2.667-2.155,3.786-3.241C52.386,55.365,53.45,53.922,53.554,52.247"/>
		<path clip-path="url(#SVGID_8_)" fill="#FFFFFF" d="M41.138,52.365c-2.493,2.47-0.583,9.396-0.347,9.249    c0.989-0.617,2.011-1.757,6.625-1.857c-0.626-0.801-2.707-2.104-3.846-3.168C42.365,55.46,41.273,54.038,41.138,52.365"/>
		<g opacity="0.3" clip-path="url(#SVGID_8_)">
			<g>
				<defs>
					<rect id="SVGID_45_" x="39.87" y="52.365" width="7.547" height="9.251"/>
				</defs>
				<clipPath id="SVGID_46_">
					<use xlink:href="#SVGID_45_" overflow="visible"/>
				</clipPath>
				<path clip-path="url(#SVGID_46_)" fill="#A7D7E8" d="M41.138,52.365c-2.493,2.47-0.583,9.396-0.347,9.249      c0.989-0.617,2.011-1.757,6.625-1.857c-0.626-0.801-2.707-2.104-3.846-3.168C42.365,55.46,41.273,54.038,41.138,52.365"/>
			</g>
		</g>
		<path clip-path="url(#SVGID_8_)" fill="#F47750" d="M47.833,59.831l-0.838,0.008c-2.568-0.205-1.977,0.909-1.968,2.006    c0.008,0.79,0.476,1.465,1.146,1.779l-0.497,3.387c0.699,0.058,1.405,0.085,2.12,0.078c0.56-0.005,1.116-0.031,1.666-0.077    l-0.599-3.485c0.589-0.351,0.982-0.993,0.975-1.728C49.826,60.702,50.432,59.501,47.833,59.831"/>
		<path clip-path="url(#SVGID_8_)" fill="#F68C6D" d="M47.408,67.083l-0.068-7.248l-0.345,0.003    c-2.568-0.203-1.978,0.909-1.968,2.008c0.008,0.789,0.476,1.465,1.146,1.778l-0.497,3.387    C46.248,67.058,46.826,67.078,47.408,67.083"/>
		<path clip-path="url(#SVGID_8_)" fill="#DD782D" d="M51.518,42.986c-2.532,0.163-3.537-1.433-3.628-2.848    c-0.075-1.162,2.316-1.442,3.347-1.508c1.031-0.067,3.437-0.097,3.512,1.065C54.809,40.618,54.614,42.786,51.518,42.986"/>
		<path clip-path="url(#SVGID_8_)" fill="#F0D5C5" d="M54.294,39.725c0.072,1.109-0.323,2.646-2.806,2.807    c-2.331,0.151-3.072-1.313-3.144-2.423C48.273,39,54.223,38.615,54.294,39.725"/>
		<path clip-path="url(#SVGID_8_)" fill="#DD782D" d="M42.865,43.068c2.534,0.115,3.509-1.499,3.574-2.917    c0.053-1.162-2.343-1.397-3.375-1.444c-1.032-0.047-3.439-0.031-3.492,1.132C39.53,40.763,39.766,42.927,42.865,43.068"/>
		<path clip-path="url(#SVGID_8_)" fill="#FCB97C" d="M40.027,39.86c-0.05,1.11,0.374,2.64,2.859,2.753    c2.333,0.106,3.047-1.371,3.098-2.482C46.034,39.021,40.078,38.75,40.027,39.86"/>
		<path clip-path="url(#SVGID_8_)" fill="#F0D5C5" d="M40.027,39.86c-0.05,1.11,0.374,2.64,2.859,2.753    c2.333,0.106,3.047-1.371,3.098-2.482C46.034,39.021,40.078,38.75,40.027,39.86"/>

			<rect x="46.263" y="39.88" transform="matrix(1 -0.0097 0.0097 1 -0.3886 0.4606)" clip-path="url(#SVGID_8_)" fill="#DD782D" width="1.756" height="0.568"/>
		<path clip-path="url(#SVGID_8_)" fill="#DD782D" d="M54.483,39.494c-0.071,0-0.143-0.026-0.197-0.079    c-0.113-0.108-0.115-0.285-0.008-0.397l0.832-0.864c0.107-0.113,0.285-0.116,0.397-0.008c0.112,0.108,0.116,0.286,0.008,0.397    l-0.832,0.865C54.629,39.464,54.556,39.493,54.483,39.494"/>
		<path clip-path="url(#SVGID_8_)" fill="#DD782D" d="M39.713,39.831c-0.077,0.001-0.154-0.034-0.205-0.101l-0.643-0.851    c-0.084-0.111-0.062-0.271,0.05-0.355c0.112-0.085,0.272-0.063,0.357,0.049l0.642,0.851c0.084,0.112,0.062,0.272-0.051,0.356    C39.818,39.813,39.766,39.831,39.713,39.831"/>
	</g>
</g>
</svg>